<svg xmlns="http://www.w3.org/2000/svg" xmlns:xlink="http://www.w3.org/1999/xlink" width="1080" height="1080" style="width:100%;height:100%;transform:translate3d(0,0,0);content-visibility:visible"><defs><mask id="cn" mask-type="alpha"><use xlink:href="#a"/></mask><mask id="cl" mask-type="alpha"><g filter="url(#b)"><use xlink:href="#c"/></g></mask><mask id="ck" mask-type="alpha"><use xlink:href="#d"/></mask><mask id="cj" mask-type="alpha"><use xlink:href="#e"/></mask><mask id="ch" mask-type="alpha"><g filter="url(#f)"><use xlink:href="#g"/></g></mask><mask id="cf" mask-type="alpha"><use xlink:href="#h"/></mask><mask id="cd" mask-type="alpha"><g filter="url(#i)"><use xlink:href="#j"/></g></mask><mask id="cc" mask-type="alpha"><use xlink:href="#k"/></mask><mask id="cb" mask-type="alpha"><use xlink:href="#l"/></mask><mask id="bZ" mask-type="alpha"><g filter="url(#m)"><use xlink:href="#n"/></g></mask><mask id="bX" mask-type="alpha"><use xlink:href="#o"/></mask><mask id="bV" mask-type="alpha"><g filter="url(#p)"><use xlink:href="#q"/></g></mask><mask id="bU" mask-type="alpha"><use xlink:href="#r"/></mask><mask id="bT" mask-type="alpha"><use xlink:href="#s"/></mask><mask id="bR" mask-type="alpha"><g filter="url(#t)"><use xlink:href="#u"/></g></mask><mask id="bH" mask-type="alpha"><use xlink:href="#v"/></mask><mask id="bG" mask-type="alpha"><use xlink:href="#w"/></mask><mask id="bE" mask-type="alpha"><use xlink:href="#x"/></mask><mask id="bD" mask-type="alpha"><use xlink:href="#y"/></mask><mask id="bB" mask-type="alpha"><use xlink:href="#z"/></mask><mask id="bA" mask-type="alpha"><use xlink:href="#A"/></mask><mask id="by" mask-type="alpha"><use xlink:href="#B"/></mask><mask id="bx" mask-type="alpha"><use xlink:href="#C"/></mask><mask id="bu" mask-type="alpha"><use xlink:href="#D"/></mask><mask id="bv" mask-type="alpha"><use xlink:href="#E"/></mask><mask id="br" mask-type="alpha"><use xlink:href="#F"/></mask><mask id="bs" mask-type="alpha"><use xlink:href="#G"/></mask><mask id="bo" mask-type="alpha"><use xlink:href="#H"/></mask><mask id="bp" mask-type="alpha"><use xlink:href="#I"/></mask><mask id="bl" mask-type="alpha"><use xlink:href="#J"/></mask><mask id="bm" mask-type="alpha"><use xlink:href="#K"/></mask><mask id="bh" mask-type="alpha"><use xlink:href="#L"/></mask><mask id="bd" mask-type="alpha"><use xlink:href="#M"/></mask><mask id="aZ" mask-type="alpha"><use xlink:href="#N"/></mask><mask id="aX" mask-type="alpha"><use xlink:href="#O"/></mask><mask id="aW" mask-type="alpha"><use xlink:href="#P"/></mask><mask id="aV" mask-type="alpha"><use xlink:href="#Q"/></mask><mask id="aT" mask-type="alpha"><use xlink:href="#R"/></mask><mask id="aS" mask-type="alpha"><use xlink:href="#S"/></mask><mask id="aR" mask-type="alpha"><use xlink:href="#T"/></mask><mask id="aP" mask-type="alpha"><use xlink:href="#U"/></mask><mask id="aO" mask-type="alpha"><use xlink:href="#V"/></mask><mask id="aN" mask-type="alpha"><use xlink:href="#W"/></mask><mask id="aL" mask-type="alpha"><use xlink:href="#X"/></mask><mask id="aK" mask-type="alpha"><use xlink:href="#Y"/></mask><mask id="aJ" mask-type="alpha"><use xlink:href="#Z"/></mask><mask id="aG" mask-type="alpha"><use xlink:href="#aa"/></mask><mask id="aF" mask-type="alpha"><use xlink:href="#ab"/></mask><mask id="aE" mask-type="alpha"><use xlink:href="#ac"/></mask><mask id="aC" mask-type="alpha"><use xlink:href="#ad"/></mask><mask id="az" mask-type="alpha"><use xlink:href="#ae"/></mask><mask id="ay" mask-type="alpha"><use xlink:href="#af"/></mask><mask id="ax" mask-type="alpha"><use xlink:href="#ag"/></mask><mask id="av" mask-type="alpha"><use xlink:href="#ah"/></mask><mask id="as" mask-type="alpha"><use xlink:href="#ai"/></mask><mask id="ar" mask-type="alpha"><use xlink:href="#aj"/></mask><mask id="aq" mask-type="alpha"><use xlink:href="#ak"/></mask><mask id="ao" mask-type="alpha"><use xlink:href="#al"/></mask><clipPath id="am"><path d="M0 0h1080v1080H0z"/></clipPath><clipPath id="cg"><path d="M0 0h1920v1079H0z"/></clipPath><clipPath id="cm"><path d="M0 0h1920v1079H0z"/></clipPath><clipPath id="ci"><path d="M0 0h1920v1079H0z"/></clipPath><clipPath id="bY"><path d="M0 0h1920v1079H0z"/></clipPath><clipPath id="ce"><path d="M0 0h1920v1079H0z"/></clipPath><clipPath id="ca"><path d="M0 0h1920v1079H0z"/></clipPath><clipPath id="bQ"><path d="M0 0h1920v1079H0z"/></clipPath><clipPath id="bW"><path d="M0 0h1920v1079H0z"/></clipPath><clipPath id="bS"><path d="M0 0h1920v1079H0z"/></clipPath><clipPath id="bP"><path d="M0 0h1920v1079H0z"/></clipPath><clipPath id="bO"><path d="M0 0h1920v1079H0z"/></clipPath><clipPath id="bN"><path d="M0 0h1920v1079H0z"/></clipPath><clipPath id="bM"><path d="M0 0h1920v1079H0z"/></clipPath><clipPath id="bL"><path d="M0 0h1920v1079H0z"/></clipPath><clipPath id="bK"><path d="M0 0h1920v1079H0z"/></clipPath><clipPath id="bJ"><path d="M0 0h1920v1079H0z"/></clipPath><clipPath id="bI"><path d="M0 0h1920v1079H0z"/></clipPath><clipPath id="bF"><path d="M0 0h1920v1079H0z"/></clipPath><clipPath id="bC"><path d="M0 0h1920v1079H0z"/></clipPath><clipPath id="bz"><path d="M0 0h1920v1079H0z"/></clipPath><clipPath id="bw"><path d="M0 0h1920v1079H0z"/></clipPath><clipPath id="bt"><path d="M0 0h1920v1079H0z"/></clipPath><clipPath id="bq"><path d="M0 0h1920v1079H0z"/></clipPath><clipPath id="bn"><path d="M0 0h1920v1079H0z"/></clipPath><clipPath id="bk"><path d="M0 0h1920v1079H0z"/></clipPath><clipPath id="bg"><path d="M0 0h1920v1079H0z"/></clipPath><clipPath id="bi"><path d="M0 0h1920v1079H0z"/></clipPath><clipPath id="bc"><path d="M0 0h1920v1079H0z"/></clipPath><clipPath id="be"><path d="M0 0h1920v1079H0z"/></clipPath><clipPath id="aY"><path d="M0 0h1920v1079H0z"/></clipPath><clipPath id="ba"><path d="M0 0h1920v1079H0z"/></clipPath><clipPath id="aU"><path d="M0 0h1920v1079H0z"/></clipPath><clipPath id="aQ"><path d="M0 0h1920v1079H0z"/></clipPath><clipPath id="aM"><path d="M0 0h1920v1079H0z"/></clipPath><clipPath id="aI"><path d="M0 0h1920v1079H0z"/></clipPath><clipPath id="aB"><path d="M0 0h1920v1079H0z"/></clipPath><clipPath id="aH"><path d="M0 0h1920v1079H0z"/></clipPath><clipPath id="aD"><path d="M0 0h1920v1079H0z"/></clipPath><clipPath id="au"><path d="M0 0h1920v1079H0z"/></clipPath><clipPath id="aA"><path d="M0 0h1920v1079H0z"/></clipPath><clipPath id="aw"><path d="M0 0h1920v1079H0z"/></clipPath><clipPath id="an"><path d="M0 0h1920v1079H0z"/></clipPath><clipPath id="at"><path d="M0 0h1920v1079H0z"/></clipPath><clipPath id="ap"><path d="M0 0h1920v1079H0z"/></clipPath><path fill="#DB8D74" d="M521.5 303c-16.5 11-42 12.5-66 13.5s-53.834 22.53-51 52c2.5 26 27.5 43 54.5 43.5 30.012.556 61-2.5 100.5-24s36.5-55.5 23.5-77-45-19-61.5-8z" transform="translate(975 551.5)" style="display:block" id="e"/><path fill="#DB8D74" d="M521.5 303c-16.5 11-42 12.5-66 13.5s-53.834 22.53-51 52c2.5 26 27.5 43 54.5 43.5 30.012.556 61-2.5 100.5-24s36.5-55.5 23.5-77-45-19-61.5-8z" transform="translate(975 551.5)" style="display:block" id="l"/><path fill="#DB8D74" d="M482.763 275.603c-62.54 10.163-70.236 76.625-62.591 127.106 8.645 49.929 23.159 76.255 59.745 71.089 30.143-4.48 46.95-27.825 42.718-65.137-4.113-34.11 2.888-55.598 6.279-76.482 5.387-32.209-15.527-60.714-46.15-56.576z" transform="rotate(35.667 107.154 2195.246)" style="display:block" id="o"/><path fill="#DB8D74" d="M521.5 303c-16.5 11-42 12.5-66 13.5s-53.834 22.53-51 52c2.5 26 27.5 43 54.5 43.5 30.012.556 61-2.5 100.5-24s36.5-55.5 23.5-77-45-19-61.5-8z" transform="translate(975 551.5)" style="display:block" id="s"/><path fill="#FFCBA3" d="M208.585-408.855c-7.835-3.645-36.835-2.645-50.532 21.238-12.377 21.58-5.057 49.093 16.487 61.532 0 0 2.21 1.585 4.192 2.604C165-376.5 201.25-403.25 213.777-407.001c-1.277-.999-5.192-1.854-5.192-1.854z" transform="rotate(1.296 -25476.398 45803.862)" style="display:block" id="v"/><path fill="#B23232" d="m184.184-391.346 1.125 3.376c1.06 3.18-.793 6.524-4.138 7.468-3.345.943-6.916-.872-7.976-4.053l-1.125-3.375c-1.06-3.182.793-6.525 4.138-7.469 3.345-.943 6.917.871 7.976 4.053z" transform="rotate(1.296 -25476.398 45803.862)" style="display:block" id="w"/><path fill="#FFCBA3" d="M208.585-408.855c-7.835-3.645-36.835-2.645-50.532 21.238-12.377 21.58-5.057 49.093 16.487 61.532 0 0 2.21 1.585 4.192 2.604C165-376.5 201.25-403.25 213.777-407.001c-1.277-.999-5.192-1.854-5.192-1.854z" transform="rotate(1.568 -20927.52 37851.114)" style="display:block" id="x"/><path fill="#B23232" d="m184.23-391.34 1.119 3.378c1.054 3.184-.808 6.524-4.159 7.46-3.35.936-6.92-.888-7.975-4.072l-1.118-3.378c-1.054-3.185.808-6.524 4.158-7.46 3.35-.936 6.921.887 7.975 4.071z" transform="rotate(1.568 -20927.52 37851.114)" style="display:block" id="y"/><path fill="#FFCBA3" d="M208.585-408.855c-7.835-3.645-36.835-2.645-50.532 21.238-12.377 21.58-5.057 49.093 16.487 61.532 0 0 2.21 1.585 4.192 2.604C165-376.5 201.25-403.25 213.777-407.001c-1.277-.999-5.192-1.854-5.192-1.854z" transform="rotate(1.568 -20927.52 37851.114)" style="display:block" id="z"/><path fill="#B23232" d="m184.23-391.34 1.119 3.378c1.054 3.184-.808 6.524-4.159 7.46-3.35.936-6.92-.888-7.975-4.072l-1.118-3.378c-1.054-3.185.808-6.524 4.158-7.46 3.35-.936 6.921.887 7.975 4.071z" transform="rotate(1.568 -20927.52 37851.114)" style="display:block" id="A"/><path fill="#FFCBA3" d="M208.585-408.855c-7.835-3.645-36.835-2.645-50.532 21.238-12.377 21.58-5.057 49.093 16.487 61.532 0 0 2.21 1.585 4.192 2.604C165-376.5 201.25-403.25 213.777-407.001c-1.277-.999-5.192-1.854-5.192-1.854z" transform="rotate(1.568 -20927.273 37851.03)" style="display:block" id="B"/><path fill="#B23232" d="m184.225-391.341 1.12 3.378c1.054 3.183-.807 6.524-4.156 7.46-3.35.938-6.921-.885-7.976-4.069l-1.12-3.378c-1.053-3.184.808-6.524 4.157-7.46 3.35-.938 6.921.884 7.975 4.069z" transform="rotate(1.568 -20927.273 37851.03)" style="display:block" id="C"/><path fill="#58CC02" d="M318.202-45.464c15.252 94.999-31.572 144.035-95.655 159.537-84.448 20.428-134.794-43.146-151.05-96.71C16-165.5 158.631-177.933 166.59-174.39a21.642 21.642 0 0 0 13.898 1.277c13.72-3.334 29.364-13.462 52.062-24.71 28.634-14.19 72.547 1.407 71.323 40.679 0 0 5.505 56.717 14.329 111.68zm-15 4c15.252 94.999-16.572 140.035-80.655 155.537-84.448 20.428-144.155-35.09-168.05-85.71C36.399-9.976 31.209-79.308 31.209-79.308c-2.443-42.408 8.57-88.445 47.15-106.222 17.568-8.095 35.66-11.367 49.816-6.28 21.939 7.884 30.456 13.877 38.415 17.42 4.363 1.942 127.788 77.963 136.612 132.926z" transform="rotate(-2.646 13776.4 -22136.3)" style="display:block" id="E"/><path fill="#58CC02" d="M318.202-45.464c15.252 94.999-31.572 144.035-95.655 159.537-84.448 20.428-134.794-43.146-151.05-96.71C16-165.5 158.631-177.933 166.59-174.39a21.642 21.642 0 0 0 13.898 1.277c13.72-3.334 29.364-13.462 52.062-24.71 28.634-14.19 72.547 1.407 71.323 40.679 0 0 5.505 56.717 14.329 111.68zm-15 4c15.252 94.999-16.572 140.035-80.655 155.537-84.448 20.428-144.155-35.09-168.05-85.71C36.399-9.976 31.209-79.308 31.209-79.308c-2.443-42.408 8.57-88.445 47.15-106.222 17.568-8.095 35.66-11.367 49.816-6.28 21.939 7.884 30.456 13.877 38.415 17.42 4.363 1.942 127.788 77.963 136.612 132.926z" transform="rotate(-1.93 18866.663 -30556.66)" style="display:block" id="G"/><path fill="#58CC02" d="M318.202-45.464c15.252 94.999-31.572 144.035-95.655 159.537-84.448 20.428-134.794-43.146-151.05-96.71C16-165.5 158.631-177.933 166.59-174.39a21.642 21.642 0 0 0 13.898 1.277c13.72-3.334 29.364-13.462 52.062-24.71 28.634-14.19 72.547 1.407 71.323 40.679 0 0 5.505 56.717 14.329 111.68zm-15 4c15.252 94.999-16.572 140.035-80.655 155.537-84.448 20.428-144.155-35.09-168.05-85.71C36.399-9.976 31.209-79.308 31.209-79.308c-2.443-42.408 8.57-88.445 47.15-106.222 17.568-8.095 35.66-11.367 49.816-6.28 21.939 7.884 30.456 13.877 38.415 17.42 4.363 1.942 127.788 77.963 136.612 132.926z" transform="rotate(-2.989 12395.394 -19598.074)" style="display:block" id="I"/><path fill="#58CC02" d="M318.202-45.464c15.252 94.999-31.572 144.035-95.655 159.537-84.448 20.428-134.794-43.146-151.05-96.71C16-165.5 158.631-177.933 166.59-174.39a21.642 21.642 0 0 0 13.898 1.277c13.72-3.334 29.364-13.462 52.062-24.71 28.634-14.19 72.547 1.407 71.323 40.679 0 0 5.505 56.717 14.329 111.68zm-15 4c15.252 94.999-16.572 140.035-80.655 155.537-84.448 20.428-144.155-35.09-168.05-85.71C36.399-9.976 31.209-79.308 31.209-79.308c-2.443-42.408 8.57-88.445 47.15-106.222 17.568-8.095 35.66-11.367 49.816-6.28 21.939 7.884 30.456 13.877 38.415 17.42 4.363 1.942 127.788 77.963 136.612 132.926z" transform="rotate(-2.985 12394.635 -19619.16)" style="display:block" id="K"/><path fill="#FFC7B8" d="M552.811-154.957c-14.873-8.982-34.962-11.237-52.179-1.891l-28.256 15.339a51.11 51.11 0 0 0-25.616 34.316l-7.98 37.63C434.57-49.714 440-30 458.986-17.428 477.972-4.856 510.5 12 528.501 43.852c6.897 12.204 42.974 11.603 54.934 7.15l38.691-9.376A38.335 38.335 0 0 0 651.93 8.839l6.319-51.72c-.568-6.318-6.973-19.296-11.519-26.102C621-107.5 590-132.5 552.811-154.957z" transform="rotate(-4.893 7788.376 -11211.35)" style="display:block" id="L"/><path fill="#FFC7B8" d="M552.811-154.957c-14.873-8.982-34.962-11.237-52.179-1.891l-28.256 15.339a51.11 51.11 0 0 0-25.616 34.316l-7.98 37.63C434.57-49.714 440-30 458.986-17.428 477.972-4.856 510.5 12 528.501 43.852c6.897 12.204 42.974 11.603 54.934 7.15l38.691-9.376A38.335 38.335 0 0 0 651.93 8.839l6.319-51.72c-.568-6.318-6.973-19.296-11.519-26.102C621-107.5 590-132.5 552.811-154.957z" transform="rotate(-6.966 5759.877 -7826.362)" style="display:block" id="M"/><path fill="#FFC7B8" d="M552.811-154.957c-14.873-8.982-34.962-11.237-52.179-1.891l-28.256 15.339a51.11 51.11 0 0 0-25.616 34.316l-7.98 37.63C434.57-49.714 440-30 458.986-17.428 477.972-4.856 510.5 12 528.501 43.852c6.897 12.204 42.974 11.603 54.934 7.15l38.691-9.376A38.335 38.335 0 0 0 651.93 8.839l6.319-51.72c-.568-6.318-6.973-19.296-11.519-26.102C621-107.5 590-132.5 552.811-154.957z" transform="rotate(-6.966 5759.878 -7826.362)" style="display:block" id="N"/><path fill="#CC348D" d="M745.232-224.137c-.304-28.44 22.505-51.741 50.945-52.045 28.44-.304 51.741 22.506 52.045 50.946.304 28.44-22.505 51.74-50.945 52.044-28.44.304-51.741-22.505-52.045-50.945z" transform="rotate(-3.225 11773.017 -18195.726)" style="display:block" id="O"/><path fill="#0084C2" d="M732.862-124.382c4.759-25.473 29.266-42.264 54.739-37.505s42.265 29.265 37.506 54.738-29.266 42.265-54.739 37.506-42.265-29.266-37.506-54.739z" transform="rotate(3.225 -9135.546 18467.86)" style="display:block" id="P"/><path fill="#AFD5E0" d="M750.527-172.52c-2.856 6.832 153.036 310.917-59.97 264.614s1.1-278.504 4.916-287.632c3.816-9.128 19.234-11.375 34.437-5.019 15.203 6.356 24.433 18.909 20.617 28.037z" transform="rotate(-6.449 6505.285 -9054.674)" style="display:block" id="Q"/><path fill="#CC348D" d="M745.232-224.137c-.304-28.44 22.505-51.741 50.945-52.045 28.44-.304 51.741 22.506 52.045 50.946.304 28.44-22.505 51.74-50.945 52.044-28.44.304-51.741-22.505-52.045-50.945z" transform="rotate(-5.513 7422.192 -10567.576)" style="display:block" id="R"/><path fill="#0084C2" d="M732.862-124.382c4.759-25.473 29.266-42.264 54.739-37.505s42.265 29.265 37.506 54.738-29.266 42.265-54.739 37.506-42.265-29.266-37.506-54.739z" transform="rotate(5.513 -4787.84 10838.017)" style="display:block" id="S"/><path fill="#AFD5E0" d="M750.527-172.52c-2.856 6.832 153.036 310.917-59.97 264.614s1.1-278.504 4.916-287.632c3.816-9.128 19.234-11.375 34.437-5.019 15.203 6.356 24.433 18.909 20.617 28.037z" transform="rotate(-11.025 4325.188 -5227.466)" style="display:block" id="T"/><path fill="#CC348D" d="M745.232-224.137c-.304-28.44 22.505-51.741 50.945-52.045 28.44-.304 51.741 22.506 52.045 50.946.304 28.44-22.505 51.74-50.945 52.044-28.44.304-51.741-22.505-52.045-50.945z" transform="rotate(-5.989 6934.078 -9712.103)" style="display:block" id="U"/><path fill="#0084C2" d="M732.862-124.382c4.759-25.473 29.266-42.264 54.739-37.505s42.265 29.265 37.506 54.738-29.266 42.265-54.739 37.506-42.265-29.266-37.506-54.739z" transform="rotate(5.989 -4300.438 9982.162)" style="display:block" id="V"/><path fill="#AFD5E0" d="M750.527-172.52c-2.856 6.832 153.036 310.917-59.97 264.614s1.1-278.504 4.916-287.632c3.816-9.128 19.234-11.375 34.437-5.019 15.203 6.356 24.433 18.909 20.617 28.037z" transform="rotate(-11.978 4080.432 -4797.177)" style="display:block" id="W"/><path fill="#CC348D" d="M745.232-224.137c-.304-28.44 22.505-51.741 50.945-52.045 28.44-.304 51.741 22.506 52.045 50.946.304 28.44-22.505 51.74-50.945 52.044-28.44.304-51.741-22.505-52.045-50.945z" transform="rotate(-5.989 6934.078 -9712.103)" style="display:block" id="X"/><path fill="#0084C2" d="M732.862-124.382c4.759-25.473 29.266-42.264 54.739-37.505s42.265 29.265 37.506 54.738-29.266 42.265-54.739 37.506-42.265-29.266-37.506-54.739z" transform="rotate(5.989 -4300.438 9982.162)" style="display:block" id="Y"/><path fill="#AFD5E0" d="M750.527-172.52c-2.856 6.832 153.036 310.917-59.97 264.614s1.1-278.504 4.916-287.632c3.816-9.128 19.234-11.375 34.437-5.019 15.203 6.356 24.433 18.909 20.617 28.037z" transform="rotate(-11.976 4080.956 -4798.09)" style="display:block" id="Z"/><path fill="#FFF" d="M638.033-169.849c-41.207 112.587-110.385 302.331-170.99 469.348-11.827 32.594-21.429 51.144-71.04 55.59-84.82 7.601-163.41 13.29-252.041 16.588-15.917.592-33.228-11.412-36.908-42.619-14.53-123.235-31.678-302.891-47.058-481.524-2.828-32.845 23.041-69.646 70.892-70.091 112.027-1.042 349.193-14.511 455.264-10.36 34.205 1.339 62.292 34.624 51.881 63.068z" transform="rotate(-145 914.887 215.665) scale(.5)" style="display:block" id="aa"/><path fill="#FFF" d="M615.125 597.383S518.546 449.096 506.719 481.69c-11.827 32.594-61.105-131.047-110.716-126.601-84.82 7.601-163.41 13.29-252.041 16.588-15.917.592-33.228-11.412-36.908-42.619-14.53-123.235-31.678-302.891-47.058-481.524-2.828-32.845 23.041-69.646 70.892-70.091 112.027-1.042 349.193-14.511 455.264-10.36 34.205 1.339 62.292 34.624 51.881 63.068C596.826-57.262 923.151 9.427 923.151 9.427s83.359 177.85 82.666 179.759c-.334.919-390.692 408.197-390.692 408.197z" transform="rotate(-145 914.887 215.665) scale(.5)" style="display:block" id="ad"/><path fill="#FFF" d="M412.599 78.212c-6.132 3.04-7.257 9.111-7.45 10.036l-2.078 9.955c-.804 3.852 1.678 7.626 5.543 8.43l7.348 1.528c7.924 1.648 15.683-3.417 17.331-11.313.495-2.371 3.308-16.424 3.308-16.424s-16.193-6.083-24.002-2.212zm-14.702-3.734c3.902 5.915 3.593 9.268 3.279 11.761-.411 3.262-1.961 10.655-1.961 10.655-.863 4.124-4.939 6.767-9.102 5.904l-7.271-1.508c-8.179-1.696-13.434-9.638-11.738-17.74.661-3.158 3.897-16.189 3.897-16.189s19.186 1.492 22.896 7.117z" transform="rotate(-5 7434.336 -10806.818)" style="display:block" id="ab"/><path fill="#FFF" d="M412.599 78.212c-6.132 3.04-7.257 9.111-7.45 10.036l-2.078 9.955c-.804 3.852 1.678 7.626 5.543 8.43l7.348 1.528c7.924 1.648 15.683-3.417 17.331-11.313.495-2.371 3.308-16.424 3.308-16.424s-16.193-6.083-24.002-2.212zm-14.702-3.734c3.902 5.915 3.593 9.268 3.279 11.761-.411 3.262-1.961 10.655-1.961 10.655-.863 4.124-4.939 6.767-9.102 5.904l-7.271-1.508c-8.179-1.696-13.434-9.638-11.738-17.74.661-3.158 3.897-16.189 3.897-16.189s19.186 1.492 22.896 7.117z" transform="rotate(-5 7434.336 -10806.818)" style="display:block" id="ac"/><path fill="#FFF" d="M638.033-169.849c-41.207 112.587-110.385 302.331-170.99 469.348-11.827 32.594-21.429 51.144-71.04 55.59-84.82 7.601-163.41 13.29-252.041 16.588-15.917.592-33.228-11.412-36.908-42.619-14.53-123.235-31.678-302.891-47.058-481.524-2.828-32.845 23.041-69.646 70.892-70.091 112.027-1.042 349.193-14.511 455.264-10.36 34.205 1.339 62.292 34.624 51.881 63.068z" transform="rotate(-145 914.887 215.665) scale(.5)" style="display:block" id="ae"/><path fill="#FFF" d="M615.125 597.383S518.546 449.096 506.719 481.69c-11.827 32.594-61.105-131.047-110.716-126.601-84.82 7.601-163.41 13.29-252.041 16.588-15.917.592-33.228-11.412-36.908-42.619-14.53-123.235-31.678-302.891-47.058-481.524-2.828-32.845 23.041-69.646 70.892-70.091 112.027-1.042 349.193-14.511 455.264-10.36 34.205 1.339 62.292 34.624 51.881 63.068C596.826-57.262 923.151 9.427 923.151 9.427s83.359 177.85 82.666 179.759c-.334.919-390.692 408.197-390.692 408.197z" transform="rotate(-145 914.887 215.665) scale(.5)" style="display:block" id="ah"/><path fill="#FFF" d="M412.599 78.212c-6.132 3.04-7.257 9.111-7.45 10.036l-2.078 9.955c-.804 3.852 1.678 7.626 5.543 8.43l7.348 1.528c7.924 1.648 15.683-3.417 17.331-11.313.495-2.371 3.308-16.424 3.308-16.424s-16.193-6.083-24.002-2.212zm-14.702-3.734c3.902 5.915 3.593 9.268 3.279 11.761-.411 3.262-1.961 10.655-1.961 10.655-.863 4.124-4.939 6.767-9.102 5.904l-7.271-1.508c-8.179-1.696-13.434-9.638-11.738-17.74.661-3.158 3.897-16.189 3.897-16.189s19.186 1.492 22.896 7.117z" transform="rotate(-5 7434.013 -10806.563)" style="display:block" id="af"/><path fill="#FFF" d="M412.599 78.212c-6.132 3.04-7.257 9.111-7.45 10.036l-2.078 9.955c-.804 3.852 1.678 7.626 5.543 8.43l7.348 1.528c7.924 1.648 15.683-3.417 17.331-11.313.495-2.371 3.308-16.424 3.308-16.424s-16.193-6.083-24.002-2.212zm-14.702-3.734c3.902 5.915 3.593 9.268 3.279 11.761-.411 3.262-1.961 10.655-1.961 10.655-.863 4.124-4.939 6.767-9.102 5.904l-7.271-1.508c-8.179-1.696-13.434-9.638-11.738-17.74.661-3.158 3.897-16.189 3.897-16.189s19.186 1.492 22.896 7.117z" transform="rotate(-5 7434.013 -10806.563)" style="display:block" id="ag"/><path fill="#FFF" d="M638.033-169.849c-41.207 112.587-110.385 302.331-170.99 469.348-11.827 32.594-21.429 51.144-71.04 55.59-84.82 7.601-163.41 13.29-252.041 16.588-15.917.592-33.228-11.412-36.908-42.619-14.53-123.235-31.678-302.891-47.058-481.524-2.828-32.845 23.041-69.646 70.892-70.091 112.027-1.042 349.193-14.511 455.264-10.36 34.205 1.339 62.292 34.624 51.881 63.068z" transform="rotate(-145 914.887 215.665) scale(.5)" style="display:block" id="ai"/><path fill="#FFF" d="M615.125 597.383S518.546 449.096 506.719 481.69c-11.827 32.594-61.105-131.047-110.716-126.601-84.82 7.601-163.41 13.29-252.041 16.588-15.917.592-33.228-11.412-36.908-42.619-14.53-123.235-31.678-302.891-47.058-481.524-2.828-32.845 23.041-69.646 70.892-70.091 112.027-1.042 349.193-14.511 455.264-10.36 34.205 1.339 62.292 34.624 51.881 63.068C596.826-57.262 923.151 9.427 923.151 9.427s83.359 177.85 82.666 179.759c-.334.919-390.692 408.197-390.692 408.197z" transform="rotate(-145 914.887 215.665) scale(.5)" style="display:block" id="al"/><path fill="#FFF" d="M412.599 78.212c-6.132 3.04-7.257 9.111-7.45 10.036l-2.078 9.955c-.804 3.852 1.678 7.626 5.543 8.43l7.348 1.528c7.924 1.648 15.683-3.417 17.331-11.313.495-2.371 3.308-16.424 3.308-16.424s-16.193-6.083-24.002-2.212zm-14.702-3.734c3.902 5.915 3.593 9.268 3.279 11.761-.411 3.262-1.961 10.655-1.961 10.655-.863 4.124-4.939 6.767-9.102 5.904l-7.271-1.508c-8.179-1.696-13.434-9.638-11.738-17.74.661-3.158 3.897-16.189 3.897-16.189s19.186 1.492 22.896 7.117z" transform="rotate(-5 7434.471 -10806.925)" style="display:block" id="aj"/><path fill="#FFF" d="M412.599 78.212c-6.132 3.04-7.257 9.111-7.45 10.036l-2.078 9.955c-.804 3.852 1.678 7.626 5.543 8.43l7.348 1.528c7.924 1.648 15.683-3.417 17.331-11.313.495-2.371 3.308-16.424 3.308-16.424s-16.193-6.083-24.002-2.212zm-14.702-3.734c3.902 5.915 3.593 9.268 3.279 11.761-.411 3.262-1.961 10.655-1.961 10.655-.863 4.124-4.939 6.767-9.102 5.904l-7.271-1.508c-8.179-1.696-13.434-9.638-11.738-17.74.661-3.158 3.897-16.189 3.897-16.189s19.186 1.492 22.896 7.117z" transform="rotate(-5 7434.471 -10806.925)" style="display:block" id="ak"/><filter id="b" filterUnits="objectBoundingBox" x="0%" y="0%" width="100%" height="100%"><feComponentTransfer in="SourceGraphic"><feFuncA type="table" tableValues="1.0 0.0"/></feComponentTransfer></filter><filter id="f" filterUnits="objectBoundingBox" x="0%" y="0%" width="100%" height="100%"><feComponentTransfer in="SourceGraphic"><feFuncA type="table" tableValues="1.0 0.0"/></feComponentTransfer></filter><filter id="i" filterUnits="objectBoundingBox" x="0%" y="0%" width="100%" height="100%"><feComponentTransfer in="SourceGraphic"><feFuncA type="table" tableValues="1.0 0.0"/></feComponentTransfer></filter><filter id="m" filterUnits="objectBoundingBox" x="0%" y="0%" width="100%" height="100%"><feComponentTransfer in="SourceGraphic"><feFuncA type="table" tableValues="1.0 0.0"/></feComponentTransfer></filter><filter id="p" filterUnits="objectBoundingBox" x="0%" y="0%" width="100%" height="100%"><feComponentTransfer in="SourceGraphic"><feFuncA type="table" tableValues="1.0 0.0"/></feComponentTransfer></filter><filter id="t" filterUnits="objectBoundingBox" x="0%" y="0%" width="100%" height="100%"><feComponentTransfer in="SourceGraphic"><feFuncA type="table" tableValues="1.0 0.0"/></feComponentTransfer></filter><g style="display:block" id="g"><path fill="#FFF" d="M638.033-169.849c-41.207 112.587 498.002-704.754 437.397-537.737-11.827 32.594-744.654 15.526-794.265 19.972-84.82 7.601-1090.514 743.028-1179.146 746.325-15.917.593 94.439 209.272 90.759 178.065-14.53-123.236 483.127-306.895 467.747-485.528-1.182-13.726 402.119 68.144 410.47 55.978 11.633-16.946 32.039-29.524 59.893-29.783 112.027-1.042 349.193-14.511 455.264-10.36 34.205 1.339 62.291 34.624 51.881 63.068z" transform="rotate(-145 914.887 215.665) scale(.5)"/><path fill-opacity="0" stroke="#9DEEC7" stroke-width="6.5" d="M1230.584 803.67C1279.75 769.375 824.5 949.5 897.22 898.474c14.192-9.958 309.445 207.2 331.04 219.606 36.92 21.212 659.74 8.42 696.987 32.488 6.69 4.322 21.337-112.796 13.894-98.96-29.391 54.642-285.89-12.858-330.821 64.717-3.453 5.96-145.156-143.233-152.065-140.645-9.625 3.604-21.59 2.904-33.072-4.979-46.183-31.7-147.183-94.2-189.437-126.32-13.625-10.359-15.583-32.046-3.162-40.71z"/></g><g style="display:block" id="d"><path fill="#DB8D74" d="M521.5 303c-16.5 11-42 12.5-66 13.5s-53.834 22.53-51 52c2.5 26 27.5 43 54.5 43.5 30.012.556 61-2.5 100.5-24s36.5-55.5 23.5-77-45-19-61.5-8z" transform="translate(975 551.5)"/><path fill-opacity="0" stroke="#3D3D3D" stroke-width="2" d="M1496.5 854.5c-16.5 11-42 12.5-66 13.5s-53.834 22.53-51 52c2.5 26 27.5 43 54.5 43.5 30.012.556 61-2.5 100.5-24s36.5-55.5 23.5-77-45-19-61.5-8z"/></g><g style="display:block" id="n"><path fill="#FFF" d="M638.033-169.849c-41.207 112.587 498.002-704.754 437.397-537.737-11.827 32.594-744.654 15.526-794.265 19.972-84.82 7.601-1090.514 743.028-1179.146 746.325-15.917.593 94.439 209.272 90.759 178.065-14.53-123.236 483.127-306.895 467.747-485.528-1.182-13.726 402.119 68.144 410.47 55.978 11.633-16.946 32.039-29.524 59.893-29.783 112.027-1.042 349.193-14.511 455.264-10.36 34.205 1.339 62.291 34.624 51.881 63.068z" transform="rotate(-145 914.887 215.665) scale(.5)"/><path fill-opacity="0" stroke="#9DEEC7" stroke-width="6.5" d="M1230.584 803.67C1279.75 769.375 824.5 949.5 897.22 898.474c14.192-9.958 309.445 207.2 331.04 219.606 36.92 21.212 659.74 8.42 696.987 32.488 6.69 4.322 21.337-112.796 13.894-98.96-29.391 54.642-285.89-12.858-330.821 64.717-3.453 5.96-145.156-143.233-152.065-140.645-9.625 3.604-21.59 2.904-33.072-4.979-46.183-31.7-147.183-94.2-189.437-126.32-13.625-10.359-15.583-32.046-3.162-40.71z"/></g><g style="display:block" id="k"><path fill="#DB8D74" d="M521.5 303c-16.5 11-42 12.5-66 13.5s-53.834 22.53-51 52c2.5 26 27.5 43 54.5 43.5 30.012.556 61-2.5 100.5-24s36.5-55.5 23.5-77-45-19-61.5-8z" transform="translate(975 551.5)"/><path fill-opacity="0" stroke="#3D3D3D" stroke-width="2" d="M1496.5 854.5c-16.5 11-42 12.5-66 13.5s-53.834 22.53-51 52c2.5 26 27.5 43 54.5 43.5 30.012.556 61-2.5 100.5-24s36.5-55.5 23.5-77-45-19-61.5-8z"/></g><g style="display:block" id="u"><path fill="#FFF" d="M638.033-169.849c-41.207 112.587 498.002-704.754 437.397-537.737-11.827 32.594-744.654 15.526-794.265 19.972-84.82 7.601-1090.514 743.028-1179.146 746.325-15.917.593 94.439 209.272 90.759 178.065-14.53-123.236 483.127-306.895 467.747-485.528-1.182-13.726 402.119 68.144 410.47 55.978 11.633-16.946 32.039-29.524 59.893-29.783 112.027-1.042 349.193-14.511 455.264-10.36 34.205 1.339 62.291 34.624 51.881 63.068z" transform="rotate(-145 914.887 215.665) scale(.5)"/><path fill-opacity="0" stroke="#9DEEC7" stroke-width="6.5" d="M1230.584 803.67C1279.75 769.375 824.5 949.5 897.22 898.474c14.192-9.958 309.445 207.2 331.04 219.606 36.92 21.212 659.74 8.42 696.987 32.488 6.69 4.322 21.337-112.796 13.894-98.96-29.391 54.642-285.89-12.858-330.821 64.717-3.453 5.96-145.156-143.233-152.065-140.645-9.625 3.604-21.59 2.904-33.072-4.979-46.183-31.7-147.183-94.2-189.437-126.32-13.625-10.359-15.583-32.046-3.162-40.71z"/></g><g style="display:block" id="r"><path fill="#DB8D74" d="M521.5 303c-16.5 11-42 12.5-66 13.5s-53.834 22.53-51 52c2.5 26 27.5 43 54.5 43.5 30.012.556 61-2.5 100.5-24s36.5-55.5 23.5-77-45-19-61.5-8z" transform="translate(975 551.5)"/><path fill-opacity="0" stroke="#3D3D3D" stroke-width="2" d="M1496.5 854.5c-16.5 11-42 12.5-66 13.5s-53.834 22.53-51 52c2.5 26 27.5 43 54.5 43.5 30.012.556 61-2.5 100.5-24s36.5-55.5 23.5-77-45-19-61.5-8z"/></g><linearGradient id="bj" spreadMethod="pad" gradientUnits="userSpaceOnUse" x1="475" y1="-110.003" x2="566.067" y2="-38.825"><stop offset="0%" stop-color="#FFA75F"/><stop offset="50%" stop-color="#FFB78B"/><stop offset="100%" stop-color="#FFC7B8"/></linearGradient><linearGradient id="bf" spreadMethod="pad" gradientUnits="userSpaceOnUse" x1="475" y1="-110.003" x2="566.067" y2="-38.825"><stop offset="0%" stop-color="#FFA75F"/><stop offset="50%" stop-color="#FFB78B"/><stop offset="100%" stop-color="#FFC7B8"/></linearGradient><linearGradient id="bb" spreadMethod="pad" gradientUnits="userSpaceOnUse" x1="475" y1="-110.003" x2="566.067" y2="-38.825"><stop offset="0%" stop-color="#FFA75F"/><stop offset="50%" stop-color="#FFB78B"/><stop offset="100%" stop-color="#FFC7B8"/></linearGradient></defs><g clip-path="url(#am)"><g clip-path="url(#aB)" style="display:block" transform="matrix(-1 0 0 1 1916 -23.5)"><g style="display:block"><path fill="#58CC02" d="M1230.485 803.743c49.265-34.368 132.015-92.243 204.643-143.202 2.002-1.405 3.906-2.71 5.76-3.878 4.8-3.029 9.266-5.15 14.243-5.77 6.718-.835 14.365 1.067 25.027 7.176 36.967 21.181 70.905 41.494 108.168 65.572 4.658 3.01 6.174 7.172 6.757 10.689.983 5.927-.897 11.436-3.946 17.277-3.012 5.768-6.232 11.558-9.996 18.377C1550.5 825.5 1502 911.25 1472.57 961.824c-4.698 8.072-10.57 15.176-16.747 21.73-4.887 5.184-14.269 14.656-20.551 18.658-11.597 7.387-24.773 4.218-34.089-2.01C1359.001 972 1261.5 906.5 1219.247 875.38c-8.648-6.368-11.976-19.711-10.496-25.73 2.25-9.15 4.91-17.376 8.08-24.263 3.17-6.887 7.327-17.231 13.654-21.644z"/><path stroke="#58CC02" stroke-width="6.5" d="M1230.485 803.743c49.265-34.368 132.015-92.243 204.643-143.202 2.002-1.405 3.906-2.71 5.76-3.878 4.8-3.029 9.266-5.15 14.243-5.77 6.718-.835 14.365 1.067 25.027 7.176 36.967 21.181 70.905 41.494 108.168 65.572 4.658 3.01 6.174 7.172 6.757 10.689.983 5.927-.897 11.436-3.946 17.277-3.012 5.768-6.232 11.558-9.996 18.377C1550.5 825.5 1502 911.25 1472.57 961.824c-4.698 8.072-10.57 15.176-16.747 21.73-4.887 5.184-14.269 14.656-20.551 18.658-11.597 7.387-24.773 4.218-34.089-2.01C1359.001 972 1261.5 906.5 1219.247 875.38c-8.648-6.368-11.976-19.711-10.496-25.73 2.25-9.15 4.91-17.376 8.08-24.263 3.17-6.887 7.327-17.231 13.654-21.644z" fill="none"/><path fill="#FFF" d="M1230.584 803.67c49.166-34.295 131.916-92.17 204.637-143.195 14.192-9.958 23.444-14.802 45.039-2.395 36.92 21.212 70.74 41.42 107.987 65.488 6.69 4.322 10.337 14.203 2.894 28.04-29.391 54.642-73.89 133.142-118.821 210.717-8.262 14.263-29.411 21.917-49.137 8.376-46.183-31.7-147.183-94.2-189.437-126.32-13.625-10.359-15.583-32.046-3.162-40.71z"/><path stroke="#9DEEC7" stroke-width="6.5" d="M1230.584 803.67c49.166-34.295 131.916-92.17 204.637-143.195 14.192-9.958 23.444-14.802 45.039-2.395 36.92 21.212 70.74 41.42 107.987 65.488 6.69 4.322 10.337 14.203 2.894 28.04-29.391 54.642-73.89 133.142-118.821 210.717-8.262 14.263-29.411 21.917-49.137 8.376-46.183-31.7-147.183-94.2-189.437-126.32-13.625-10.359-15.583-32.046-3.162-40.71z" fill="none"/></g><g mask="url(#aC)" style="display:block"><g clip-path="url(#aD)"><path fill="#A175F9" d="M313.521 147.266a4.996 4.996 0 0 1-2.476-6.589l35.505-79.229c12.52-26.807 39.038-43.041 67.437-37.268 27.928 5.677 46.166 30.165 46.598 59.638l2.639 84.3a5.001 5.001 0 0 1-4.581 5.139c-10.243.872-36.172 2.236-68.29-2.346-33.359-4.759-65.34-18.373-76.832-23.645z" transform="rotate(-9 4517.733 -5773.283)" style="display:block"/><g style="display:block"><path fill="#A570FF" d="M1336.283 765.013c2.96-6.884 13.316-10.04 20.2-7.08 6.885 2.96 13.093 13.872 10.133 20.756 0 0-6.505 18.726-12.421 30.016-5.204 9.93-12.828 21.278-12.828 21.278-6.055 7.409-10.942 10.065-17.826 7.105-6.885-2.96-10.066-10.942-7.105-17.827 0 0 5.961-13.472 9.908-24.259 3.947-10.787 9.94-29.99 9.94-29.99z"/><path fill="#593F86" d="M1336.283 765.013s7.881-30.514 10.06-56.936l36.458 5.677c-.345 25.72-15.521 63.356-15.521 63.356-3.011 1.553-13.402 4.31-20.367 1.315-6.395-2.75-9.741-10.373-10.63-13.412z"/><path fill="#FFC6B7" d="M1387.696 757.317c-.074 5.545-4.63 9.98-10.176 9.906-5.546-.074-9.982-4.63-9.908-10.176.074-5.545 4.631-9.982 10.177-9.908 5.545.074 9.981 4.632 9.907 10.178z"/><path fill="#593F86" d="m1360.337 703.674-47.554 29.539c-11.219 6.97-6.5 24.263 6.704 24.567l79.754 1.838c13.244.305 18.728-16.837 7.766-24.275l-46.67-31.669z"/><path fill="#FFC6B7" d="M1358.875 735.058c-7.063-4.559-10.344-7.956-15.106-8.02-4.674-.063-8.635 3.083-9.812 7.392 5.115.138 17.568.443 24.918.628z"/></g><path fill="#FFC6B7" d="m452.468 91.525 4.291.879c6.08 1.246 9.997 7.025 8.751 12.908-1.246 5.883-7.186 9.642-13.266 8.396l-4.291-.879c-6.08-1.246-9.998-7.025-8.751-12.908 1.247-5.883 7.186-9.642 13.266-8.396zm-35.749-59.211c24.256 5.058 40.846 27.56 38.541 52.277l-5.116 39.92c-2.524 13.181-12.859 21.445-25.152 20.885-12.066-.55-19.554-1.305-35.019-2.624-15.465-1.319-26.56-9.131-26.56-9.131-12.999-2.711-21.339-15.466-18.628-28.489a24.11 24.11 0 0 1 .936-3.302l13.566-37.444c8.519-23.515 32.991-37.189 57.432-32.092z" transform="rotate(-5 7408.368 -10691.223)" style="display:block"/><path fill="#FFF" d="M412.599 78.212c-6.132 3.04-7.257 9.111-7.45 10.036l-2.078 9.955c-.804 3.852 1.678 7.626 5.543 8.43l7.348 1.528c7.924 1.648 15.683-3.417 17.331-11.313.495-2.371 3.308-16.424 3.308-16.424s-16.193-6.083-24.002-2.212zm-14.702-3.734c3.902 5.915 3.593 9.268 3.279 11.761-.411 3.262-1.961 10.655-1.961 10.655-.863 4.124-4.939 6.767-9.102 5.904l-7.271-1.508c-8.179-1.696-13.434-9.638-11.738-17.74.661-3.158 3.897-16.189 3.897-16.189s19.186 1.492 22.896 7.117z" transform="rotate(-5 7434.336 -10806.818)" style="display:block"/><g mask="url(#aE)" style="display:block"><path fill="#3D3D3D" d="M1402.533 661c-.503 3.83-3.657 6.306-7.22 5.87-3.562-.435-6.06-3.778-5.682-7.444.378-3.665 1.041-9.899 1.041-9.899l13.08.939s-.716 6.705-1.219 10.535zm-29.193-2.1c-.367 4.328-3.657 6.304-7.22 5.869-3.562-.435-6.021-4.01-5.682-7.444.347-3.52.68-8.403.68-8.403l12.643 1.044s-.054 4.605-.421 8.933z"/></g><g mask="url(#aF)" style="display:block"><path fill="#A570FF" d="m1415.77 645.75-1.12 16.504-71.251-6.753 2.159-17.809 70.212 8.057z"/></g><path fill="#FFC6B7" d="M392.238 134.582a27.84 27.84 0 0 1 .557-7.168c3.172-15.155 18.137-24.871 33.426-21.7 4.08.846 7.06 2.538 9.233 4.487 5.034 4.515-43.121 26.188-43.216 24.381z" transform="rotate(-5 7434.336 -10806.818)" style="display:block"/><path fill="#EE9583" d="M404.942 119.172c5.947-7.414 11.462-9.776 16.117-6.04.85.682.993 1.938.319 2.804a1.942 1.942 0 0 1-2.757.333c-2.469-1.981-5.872-.523-10.64 5.42a1.942 1.942 0 0 1-2.762.291 2.018 2.018 0 0 1-.277-2.808zm-7.456-4.456c3.258.67 6.439-1.349 7.106-4.511.667-3.162-3.654-11.853-3.654-11.853l-.905.784c-2.011 1.78-6.716 6.163-7.239 8.641-.667 3.162 1.434 6.268 4.692 6.939z" transform="rotate(-5 7434.013 -10806.563)" style="display:block"/><path fill="#A570FF" d="M317.487 151.331c14.939-40.032 33.041-127.467 89.887-122.518.776.068 1.386.496 1.846 1.244 6.887 11.194-19.7 94.117-24.231 115.511-.547 2.583-2.975 3.862-5.614 3.912-18.096.341-47.652 2.163-61.888 1.851zM428.486 34.052c17.261 6.726 29.208 23.333 28.949 47.181l-26.563-5.556c-19.329-4.022-23.631-20.569-23.492-40.632l-4.756-6.01c8.329-.365 18.488 2.143 25.862 5.017z" transform="rotate(-5 7408.368 -10691.223)" style="display:block"/></g></g><g mask="url(#aG)" style="display:block"><g clip-path="url(#aH)"><path fill="#E6A000" d="M0-59.292c32.723 0 59.292 26.569 59.292 59.292S32.723 59.292 0 59.292-59.292 32.723-59.292 0-32.723-59.292 0-59.292z" transform="matrix(.38973 .12663 -.0618 .19021 1493.225 685.26)" style="display:block"/><g style="display:block"><path fill="#FFC700" d="M1479.054 669.314c9.753-2.106 24.531 2.008 33.007 9.188 8.475 7.18 7.44 14.708-2.315 16.814-9.753 2.106-24.531-2.007-33.007-9.188-8.475-7.18-7.439-14.708 2.315-16.814z"/><path fill="#FFE700" d="M1506.04 676.633a28.068 28.068 0 0 1 3.133 2.286c1.821 1.542 3.122 3.104 3.912 4.604.165.313-.197.356-.652.456-4.6 1.008-22.786 4.933-25.267 5.457-.34.072-.928.213-1.803-.188-2.292-1.052-4.25-2.435-5.976-3.898a19.501 19.501 0 0 1-2.538-2.554c-.142-.175-.415-.45.61-.672 4.43-.957 20.728-4.438 26.91-5.773.817-.177 1.297.045 1.672.282zm-24.7-5.462c5.383-1.163 12.583-.078 18.92 2.509.45.184 1.581.769.25 1.082-1.333.313-21.493 4.574-23.888 5.091-1.403.303-1.725-.438-1.795-.671-1.11-3.721 1.123-6.847 6.512-8.011z"/></g><path fill="#E6A000" d="M0-59.292c32.723 0 59.292 26.569 59.292 59.292S32.723 59.292 0 59.292-59.292 32.723-59.292 0-32.723-59.292 0-59.292z" transform="matrix(.4813 .24524 -.13166 .2584 1514.025 734.632)" style="display:block"/><g style="display:block"><path fill="#FFC700" d="M1499.117 709.767c13.434-1.32 31.865 7.007 41.167 18.597 9.302 11.59 5.953 22.057-7.48 23.377-13.434 1.32-31.865-7.007-41.167-18.597-9.302-11.59-5.953-22.057 7.48-23.377z"/><path fill="#FFE700" d="M1532.827 724.7a34.675 34.675 0 0 1 3.535 3.763c1.998 2.49 3.304 4.919 3.953 7.173.136.47-.354.47-.98.534-6.34.643-31.386 3.102-34.8 3.422-.468.043-1.283.143-2.332-.573-2.75-1.876-4.97-4.164-6.865-6.525-1.101-1.373-1.992-2.727-2.679-4.043-.142-.271-.43-.707.982-.846 6.102-.6 28.537-2.752 37.053-3.588 1.125-.111 1.7.283 2.133.682zm-31.18-11.92c7.415-.728 16.636 2.03 24.322 6.762.546.337 1.887 1.356.046 1.572-1.841.217-29.584 2.815-32.882 3.14-1.932.19-2.162-.914-2.193-1.255-.487-5.449 3.284-9.489 10.706-10.218z"/></g><path fill="#E6A000" d="M0-59.292c32.723 0 59.292 26.569 59.292 59.292S32.723 59.292 0 59.292-59.292 32.723-59.292 0-32.723-59.292 0-59.292z" transform="matrix(.6486 .38971 -.22476 .37406 1500.135 794.898)" style="display:block"/><g style="display:block"><path fill="#FFC700" d="M1482.475 757.503c19.29-1.18 44.282 12.171 55.821 29.82 11.54 17.65 5.256 32.914-14.034 34.095-19.29 1.18-44.282-12.171-55.821-29.82-11.54-17.65-5.256-32.914 14.034-34.095z"/><path fill="#FFE700" d="M1528.227 781.484a46.427 46.427 0 0 1 4.478 5.761c2.48 3.791 3.983 7.453 4.578 10.82.125.703-.572.674-1.472.732-9.107.587-45.072 2.785-49.973 3.061-.67.038-1.843.139-3.23-.98-3.636-2.926-6.46-6.434-8.81-10.029-1.367-2.09-2.437-4.14-3.222-6.123-.162-.409-.509-1.069 1.52-1.193 8.761-.536 40.97-2.43 53.198-3.18 1.616-.098 2.376.517 2.933 1.131zm-42.595-19.386c10.65-.651 23.358 3.948 33.597 11.378.727.528 2.484 2.11-.165 2.324-2.648.214-42.467 2.464-47.203 2.754-2.775.17-2.942-1.473-2.935-1.979.099-8.074 6.049-13.825 16.706-14.477z"/></g><path fill="#E6A000" d="M0-59.292c32.723 0 59.292 26.569 59.292 59.292S32.723 59.292 0 59.292-59.292 32.723-59.292 0-32.723-59.292 0-59.292z" transform="matrix(.68536 .4799 -.32116 .45866 1420.606 831.336)" style="display:block"/><g style="display:block"><path fill="#FFC700" d="M1406.454 784.874c22.482-1.404 49.164 15.042 59.597 36.735 10.432 21.692.663 40.415-21.819 41.82-22.482 1.404-49.164-15.043-59.597-36.735-10.432-21.692-.663-40.416 21.819-41.82z"/><path fill="#FFE700" d="M1455.376 814.418a47.284 47.284 0 0 1 4.228 7.082c2.24 4.66 3.377 9.157 3.511 13.292.028.863-.772.826-1.822.895-10.618.7-52.534 3.315-58.242 3.643-.78.044-2.152.165-3.572-1.21-3.72-3.602-6.406-7.914-8.531-12.332-1.236-2.57-2.135-5.088-2.716-7.525-.12-.502-.412-1.313 1.952-1.46 10.21-.638 47.738-2.89 61.989-3.78 1.883-.118 2.66.639 3.203 1.395zm-46.03-23.896c12.412-.776 26.34 4.9 36.949 14.044.754.65 2.524 2.596-.572 2.852-3.095.257-49.473 2.927-54.992 3.272-3.235.202-3.157-1.815-3.067-2.436 1.442-9.91 9.261-16.956 21.683-17.732z"/></g><path fill="#E6A000" d="M0-59.292c32.723 0 59.292 26.569 59.292 59.292S32.723 59.292 0 59.292-59.292 32.723-59.292 0-32.723-59.292 0-59.292z" transform="matrix(.81915 .57358 -.43018 .61436 1303.57 843.462)" style="display:block"/><g style="display:block"><path fill="#FFC700" d="M1289.189 784.783c28.033-3.338 60.076 16.103 71.57 43.422 11.493 27.32-1.915 52.173-29.948 55.511-28.033 3.339-60.076-16.102-71.57-43.422-11.493-27.32 1.915-52.173 29.948-55.511z"/><path fill="#FFE700" d="M1347.981 819.638a53.725 53.725 0 0 1 4.773 8.863c2.47 5.869 3.577 11.603 3.463 16.936-.023 1.113-1.016 1.12-2.325 1.28-13.243 1.624-65.508 7.844-72.623 8.654-.973.11-2.685.36-4.357-1.32-4.378-4.402-7.424-9.79-9.765-15.355-1.362-3.236-2.308-6.43-2.865-9.538-.115-.64-.423-1.669 2.524-2.02 12.733-1.516 59.52-6.969 77.29-9.085 2.347-.28 3.261.645 3.885 1.585zm-55.58-27.754c15.475-1.843 32.399 4.545 44.963 15.641.892.788 2.96 3.183-.904 3.724-3.864.542-61.677 7.135-68.56 7.954-4.032.48-3.8-2.13-3.645-2.939 2.463-12.903 12.658-22.536 28.146-24.38z"/></g></g></g><path stroke="#9DEEC7" stroke-width="13" d="M396.003 355.089c-84.82 7.601-163.41 13.29-252.041 16.588-15.917.592-33.228-11.412-36.908-42.619-14.53-123.235-31.678-302.891-47.058-481.524-2.828-32.845 23.041-69.646 70.892-70.091 112.027-1.042 349.193-14.511 455.264-10.36" fill="none" transform="rotate(-145 914.887 215.665) scale(.5)" style="display:block"/></g><g clip-path="url(#aQ)" style="display:block" transform="matrix(-1 0 0 1 1976 -43.5)"><g style="display:block"><path stroke-linecap="round" stroke-miterlimit="10" stroke="#CC348D" stroke-width="23" d="M1745.236 391.799c-2.9-14.883 28.039-18.667 47.584-3.377" fill="none"/><path fill="#C6775C" d="M1760.12 388.899c1.6 8.22-3.765 16.18-11.984 17.782-8.22 1.601-16.18-3.763-17.782-11.983-1.602-8.22 3.763-16.181 11.982-17.783 8.22-1.601 16.182 3.764 17.783 11.984z"/><path fill="#5EC6FF" d="M1783.21 417.8c-2 9.69-16.703 14.844-32.841 11.512-16.138-3.33-27.598-13.887-25.598-23.576 2-9.69 15.672-27.58 35.32-23.523 19.793 4.085 25.12 25.898 23.12 35.587z"/><path fill="#0084C2" d="M1783.21 417.8c-2 9.69-16.703 14.844-32.841 11.512-16.138-3.33-27.598-13.887-25.598-23.576 2-9.69 16.703-14.844 32.841-11.512 16.138 3.33 27.598 13.887 25.598 23.576z"/><path fill="#FFCC76" d="M1757.612 394.224c-9.154-1.89-17.844-1.047-24.018 1.803.642 5.718-1.492 9.44-2.054 11.012-.042.117-.1.227-.14.346-2.035 6.2 1.132 12.902 7.301 15.038 4.47 1.548 9.225.248 12.324-2.925a13.193 13.193 0 0 0 6.166 4.447c6.921 2.397 14.476-1.27 16.872-8.192 1.165-3.363 3.386-8.733 4.46-10.826-4.586-4.854-12.038-8.872-20.91-10.703z"/></g><g mask="url(#aR)" style="display:block"><path stroke-linecap="round" stroke-miterlimit="10" stroke="#FFCC76" stroke-width="4.148" d="M1797.755 313.946c-14.92 6.148-35.262 29.065-26.13 33.803 9.13 4.738 18.963-25.39 43.088-18.807m-18.961 8.73c-11.521 6.164-19.643 20.241-31.144 40.593m33.095-34.74c-5.113 5.097-7.78 7.679-13.923 17.24-6.144 9.56-13.884 18.821-17.38 31.113" fill="none"/></g><path fill="#0084C2" d="M732.862-124.382c4.759-25.473 29.266-42.264 54.739-37.505s42.265 29.265 37.506 54.738-29.266 42.265-54.739 37.506-42.265-29.266-37.506-54.739z" transform="rotate(5.513 -4787.84 10838.017)" style="display:block"/><g mask="url(#aS)" style="display:block"><path fill="#006AAD" d="M1848.064 507.415c-17.148-1.758-34.134-4.594-49.098-21.333l-6.977.332c17.916 21.388 38.524 24.74 50.015 25.345a47.202 47.202 0 0 0 6.06-4.344z"/><path fill="#C6775C" d="M1788.5 414.696c4.71-15.94 21.406-25.086 37.375-20.479 16.042 4.63 25.296 21.387 20.668 37.43l-10.102 35.01c-1.15 3.982-4.074 7.218-7.938 8.722-15.913 6.193-28.373 10.44-33.076 12.006a3.209 3.209 0 0 1-3.46-.94c-8.004-9.304-12.688-19.894-14.77-25.378-.917-2.416-.908-5.056-.175-7.535l11.478-38.836z"/><path stroke-linecap="round" stroke="#FFF" stroke-width="20.813" d="m1786.853 456.513 2.742-8.376m19.964 15.466 1.764-6.12" fill="none"/><path stroke-linecap="round" stroke="#3D3D3D" stroke-width="9.4" d="M1807.95 460.943s-1.152 2.475-1.395 4.996m-18.45-12.55s-.57 3.272-1.994 5.51" fill="none"/><path fill="#FFF" d="M1782.58 456.707c1.7.904 2.5 3.532 1.47 5.19-4.264 7.19-9-7.958-1.47-5.19zm19.318 8.004c2.033.622 3.334 2.63 2.476 4.793-2.738 4.63-6.255-4.262-2.476-4.793z"/><path fill="#C6775C" d="M1790.352 445.62a6.295 6.295 0 1 1 12.04 3.673 6.295 6.295 0 0 1-12.04-3.674z"/></g><path stroke-linecap="round" stroke="#3D3D3D" stroke-width="46.998" d="M806.508-160.321c-17.756 5.031-37.78.251-40.643-7.859" fill="none" transform="translate(1028.56 585.69)" style="display:block"/><path fill="#FFF" d="m756.151-159.828.792-1.802a5.805 5.805 0 0 1 10.63 4.672l-.792 1.802a5.805 5.805 0 0 1-10.63-4.672z" transform="translate(1028.686 585.815)" style="display:block"/><path fill="#CC348D" d="M745.232-224.137c-.304-28.44 22.505-51.741 50.945-52.045 28.44-.304 51.741 22.506 52.045 50.946.304 28.44-22.505 51.74-50.945 52.044-28.44.304-51.741-22.505-52.045-50.945z" transform="rotate(-5.513 7422.192 -10567.576)" style="display:block"/><path stroke-linecap="round" stroke-linejoin="round" stroke="#CC348D" stroke-width="23" d="M830.289-200.57s8.437 4.285 7.205 9.316c-2.97 12.125-26.443 15.5-26.443 15.5" fill="none" transform="rotate(-5.513 7422.192 -10567.576)" style="display:block"/><g mask="url(#aT)" style="display:block"><path fill="#0084C2" d="M1755.022 359.162c1.184-24.92 15.79-52.84 57.387-57.174 41.598-4.334 81.316 13.98 75.33 39.575-4.663 19.932-24.516 33.014-71.095 33.602-44.432.56-61.747-13.374-61.622-16.003z"/><path stroke="#00448E" stroke-width="11" d="M1755.022 359.162c1.184-24.92 15.79-52.84 57.387-57.174 41.598-4.334 81.316 13.98 75.33 39.575-4.663 19.932-24.516 33.014-71.095 33.602-44.432.56-61.747-13.374-61.622-16.003z" fill="none"/></g><g style="display:block"><path stroke-linecap="round" stroke-linejoin="round" stroke="#0084C2" stroke-width="20" d="M1813.023 325.768s-34.396-12.223-44.785-20.876c2.455-11.94 18.684-29.048 27.06-39.908" fill="none"/><path stroke-linecap="round" stroke-linejoin="round" stroke="#CC348D" stroke-width="14" d="M1815.888 256.187c-2.101-5.624-6.57-12.052-10.425-14.999" fill="none"/></g><g style="display:block"><path stroke-linecap="round" stroke-linejoin="round" stroke="#0084C2" stroke-width="20" d="M1813.263 325.697s-55.255 8.962-95.72-21.55" fill="none"/><path stroke-linecap="round" stroke-linejoin="round" stroke="#CC348D" stroke-width="14" d="M1703.076 285.23c-2.654 2.114-9.225 8.308-13.066 13.42" fill="none"/></g><g style="display:block"><path stroke-linecap="round" stroke-linejoin="round" stroke="#DAAF83" stroke-width="5" d="m1870.79 424.243-59.843-1.567m56.502 10.72-56.538-6.121" fill="none"/><path stroke-linecap="round" stroke-linejoin="round" stroke="#C6775C" stroke-width="9" d="m1838.463 424.263-9.385 7.155" fill="none"/><path fill="#C6775C" d="m1840.328 428.568 4.687-3.67a8.535 8.535 0 0 0 1.46-11.982l-3.247-4.146a8.534 8.534 0 0 0-11.981-1.458l-4.687 3.67a8.534 8.534 0 0 0-1.459 11.98l3.246 4.146a8.536 8.536 0 0 0 11.981 1.46z"/></g></g><g clip-path="url(#bg)" style="display:block" transform="matrix(-1 0 0 1 1916 -23.5)"><g style="display:block"><path stroke-linecap="round" stroke-linejoin="round" stroke="#FFC6B7" stroke-width="12" d="M1455.23 590.672c1.607-5.91-2.618-11.604-6.812-16.455m-10.445 6.824c6.735 2.255 12.97 6.404 15.87 11.248m-18.962 1.555c10.153.165 15.86 5.621 18.883 8.596m-5.691 9.796s7.212-6.93 16.605-10.262" fill="none"/><path stroke-linecap="round" stroke-linejoin="round" stroke="#FFC6B7" stroke-width="36" d="M1485.46 589.922c-10.355.277-15.216.599-24.132 2.038" fill="none"/><path stroke-linecap="round" stroke-linejoin="round" stroke="#33E3FF" stroke-width="36" d="M1503.628 590.064c-8.926-.987-20.347-.27-29.343.532" fill="none"/></g><path fill="#33E3FF" d="M629.487-117.524c7.259-30.145-34.55-61.584-61.92-44.628-8.075 3.048-39.508 25.925-39.508 25.925-12.645 8.886 85.046 95.136 90.183 69.582 0 0 8.393-44.11 11.245-50.88z" transform="rotate(-3.651 10080.557 -15092.999)" style="display:block"/><path stroke-linecap="round" stroke="#393939" stroke-width="27" d="m683.25 34.5 4.25 3.5" fill="none" transform="rotate(-9.859 4273.846 -5310.589)" style="display:block"/><path stroke-linecap="round" stroke-linejoin="round" stroke="#393939" stroke-width="23" d="m613.75 94-8.25 3.75" fill="none" transform="rotate(-13.399 3409.393 -3783.91)" style="display:block"/><path fill="#FFC7B8" d="M552.811-154.957c-14.873-8.982-34.962-11.237-52.179-1.891l-28.256 15.339a51.11 51.11 0 0 0-25.616 34.316l-7.98 37.63C434.57-49.714 440-30 458.986-17.428 477.972-4.856 510.5 12 528.501 43.852c6.897 12.204 42.974 11.603 54.934 7.15l38.691-9.376A38.335 38.335 0 0 0 651.93 8.839l6.319-51.72c-.568-6.318-6.973-19.296-11.519-26.102C621-107.5 590-132.5 552.811-154.957z" transform="rotate(-4.893 7788.376 -11211.35)" style="display:block"/><path fill="#EE9583" d="M523.147-6.062c2.236 3.145 5.699 3.51 8.324 1.644 2.625-1.866 3.418-5.255 1.182-8.401-2.236-3.145-9.483-4.798-10.202-4.287-.718.51-1.54 7.899.696 11.044z" transform="rotate(-4.893 7782.875 -11209.462)" style="display:block"/><g style="display:block"><path fill="#FFF" d="M1484.693 550.997c-7.789-4.824-19.985-3.581-25.901 2.64-4.887 5.139-3.732 11.943 2.701 15.928l9.642 5.972c7.789 4.825 19.985 3.58 25.901-2.64 4.886-5.139 3.733-11.943-2.7-15.928l-9.643-5.972zm31.04-22.714c-7.758-4.806-19.01-2.981-24.904 4.037-5.688 6.774-4.254 15.877 3.235 20.515l8.82 5.462c7.758 4.806 19.012 2.98 24.905-4.036 5.688-6.775 4.253-15.877-3.236-20.515l-8.82-5.463z"/><path fill="#FFC7B8" d="M1530.688 537.945c-5.397 4.356-11.673 17.17-13.357 26.454l16.867-13.616c1.08-6.094 1.888-17.194-3.51-12.838z"/><path fill="#EE9583" d="M1526.461 556.683a2.223 2.223 0 0 0-1.842 2.544c.358 2.236.315 4.421-.356 6.487-.665 2.043-1.991 4.11-4.42 6.06a2.219 2.219 0 0 0-.34 3.12 2.22 2.22 0 0 0 3.122.343c3.047-2.448 4.907-5.218 5.861-8.15.946-2.907.954-5.837.519-8.562a2.221 2.221 0 0 0-2.544-1.842z"/><path fill="#4B4B4B" d="M1501.338 540.73a4.246 4.246 0 0 0 2.008 3.239c1.98 1.227 4.558.654 5.755-1.28a4.07 4.07 0 0 0 .309-.606l4.876 2.877c3.494 2.062 4.207 6.244 1.597 9.353-2.623 3.122-7.607 3.978-11.117 1.905l-5.93-3.499c-3.494-2.061-4.208-6.243-1.599-9.351 1.064-1.268 2.516-2.16 4.101-2.638zm-15.818 15.412c.168.088.332.183.493.283l5.106 3.16c3.769 2.335 4.486 6.31 1.685 9.348-2.436 2.643-7.58 3.196-10.86 1.166l-7.336-4.544c-3.129-1.937-3.724-5.234-1.4-7.756 1.035-1.124 2.483-1.927 4.093-2.383a4.503 4.503 0 0 0 2.018 2.72c2.04 1.262 4.64.76 5.805-1.122a3.75 3.75 0 0 0 .396-.872z"/></g><g mask="url(#bh)" style="display:block"><g clip-path="url(#bi)" transform="rotate(1.169 1414.017 531.043) scale(1.00759)"><g style="display:block"><path fill="#FFC7B8" d="M1531.072 472.95c5.547 1.538 10.722-2.436 11.558-8.872.835-6.437-2.985-12.9-8.532-14.438-5.547-1.538-10.722 2.436-11.557 8.872-.836 6.437 2.985 12.9 8.531 14.438z"/><path fill="#0084C2" d="M1476.51 610.578s56.633 59.035 75.738 52.288l84.852-53.299c15.31-5.119 16.846-112.947 8.034-122.726l-46.156-33.193-.192-.139-6.05-4.349-7.1 111.687-109.126 49.731z"/><path fill="#33E3FF" d="M1599.227 458.011c-6.193-5.901-32.26-23.432-32.26-23.432a89.37 89.37 0 0 1 2.122 5.235c15.96 43.123 4.178 106.142 2.463 109.162-15.069 26.531-97.039 53.239-102.455 51.97l17.197 15.416c27.382 2.193 90.182-24.41 102.765-40.754 10.975-14.252 13.347-94.227 10.168-117.597z"/></g><path fill="url(#bj)" d="M542.287-73.808a20.443 20.443 0 0 0-21.744-1.686l-66.346 34.981c-4.69 2.473-5.503 8.833-1.52 12.333 4.619 4.057 18.803 15.086 20.93 16.441 2.539 1.618 3.641 4.492 3.329 7.164L455.999 7.558C439.513-4.27 412.084-46.23 416.293-66.078c0 0 3.246-69.461 16.083-76.429 0 0 91.517-46.369 107.436-34.95l29.674 16.915 1.147.654-.456 92.437a8.424 8.424 0 0 1-7.201 8.168c-.631.092-20.689-14.525-20.689-14.525z" transform="rotate(-6.1 6395.181 -8836.617)" style="display:block"/></g></g><path fill="#FF9500" d="M470.703-93.741c13.065-.061 20.595-10.8 20.534-24.003-.06-13.204-7.687-23.871-20.753-23.81-13.065.061-21.8 10.805-21.74 24.009.061 13.203 8.893 23.865 21.959 23.804zm-5.676 35.22c14.792-.463 26.382-13.088 25.886-28.197-.496-15.11-12.89-26.985-27.682-26.521-14.792.464-26.382 13.087-25.886 28.196.496 15.11 12.89 26.984 27.682 26.521z" transform="rotate(27.134 -261.63 2213.42)" style="display:block"/><path fill="#33E3FF" d="M637.81-65.136C633.75-56 626.831-54.6 622.786-55.983c-5.465-1.15-9.63-7.729-9.02-16.257 1.234-17.26 7.984-33.01 13.266-43.535 4.773-9.512 15.718-11.975 22.54-8.794 6.779 3.161 12.82 11.1 7.698 20.625-6.02 11.194-15.4 29.672-19.46 38.808z" transform="rotate(-3.651 10115.446 -15102.652)" style="display:block"/><g style="display:block"><path fill="#FFC6B7" d="M1634.721 452.246c-5.412-8.41-15.508-11.146-25.303-5.175-8.631 5.262-12.096 15.776-6.189 24.604 5.39 8.054 15.547 10.97 25.042 4.925 9.888-6.289 11.863-15.944 6.45-24.354z"/><path stroke-linecap="round" stroke="#EE9583" stroke-width="3.796" d="M1616.757 456.639c3.339 1.567 6.457 5.403 6.237 8.025" fill="none"/><path stroke-linecap="round" stroke-linejoin="round" stroke="#FFC6B7" stroke-width="12" d="M1611.031 451.55c.176-4.296-1.19-7.947-1.868-11.998m17.922-6.436c-4.885 3.772-7.863 10.981-7.84 14.65m19.876-8.076c-3.785 2.312-11.61 9.094-11.861 15.231m16.936-2.104c-4.708.274-10.165 5.686-12.299 10.57" fill="none"/></g></g><g clip-path="url(#bq)" style="display:block" transform="matrix(-1 0 0 1 1976 -43.5)"><path fill="#58CC02" d="M303.202-41.464c15.252 94.999-16.572 140.035-80.655 155.537-84.448 20.428-144.155-35.09-168.05-85.71C36.399-9.976 30.599-51.59 30.641-87.847c-.387-43.699 11.494-88.039 50.049-103.672 17.556-7.119 35.65-8.114 49.142-2.263 20.91 9.069 29.454 14.19 37.197 18.173 4.246 2.185 127.349 79.182 136.173 134.145zm15-4c15.252 94.999-31.572 144.035-95.655 159.537-84.448 20.428-134.794-43.146-151.05-96.71C16-165.5 159.286-179.594 167.029-175.609a21.633 21.633 0 0 0 13.8 2.059c13.881-2.554 30.422-12.356 54.124-21.218 30.315-11.325 70.387 5.308 71.806 44.56 0 0 2.619 49.781 11.443 104.744z" transform="rotate(-1.93 18866.663 -30556.66)" style="display:block"/><path fill="#58CC02" d="M194.4-10.921c41.197 33.255 100.112 36.257 145.734 6.363 45.621-29.893 66.603-85.246 52.867-136.495-2.857-10.667-15.283-15.388-24.539-9.323L195.78-37.227c-9.256 6.065-9.954 19.384-1.38 26.306z" transform="rotate(9.645 -2710.395 6415.025)" style="display:block"/><path fill="#58CC02" d="M198.976.515c-26.37 45.909-80.206 70.027-133.554 58.669C12.074 47.826-27.518 3.817-33.258-48.93c-1.195-10.977 8.679-19.874 19.504-17.569L188.17-23.511C198.993-21.206 204.464-9.04 198.976.515z" transform="rotate(-13.505 3139.96 -4096.147)" style="display:block"/><path stroke-linecap="round" stroke-linejoin="round" stroke="#F49000" stroke-width="35" d="M256.25 102.5 260 74.75" fill="none" transform="rotate(6.216 -4728.7 10030.858)" style="display:block"/><path stroke-linecap="round" stroke-linejoin="round" stroke="#F49000" stroke-width="35" d="m138 147-27-7.75" fill="none" transform="rotate(14.362 -1729.188 4550.913)" style="display:block"/><g mask="url(#bs)" style="display:block"><path fill="#89E219" d="M1235.532 633.727c-1.11 8.71-7.851 15.967-16.8 17.826-8.948 1.859-17.877-2.143-22.154-9.734-.89-1.58.06-3.588 1.874-3.965l34.679-5.341c1.816-.364 2.632-.6 2.401 1.214zm-58.531 11.8c-2.354 8.445-10.068 14.582-19.186 15.04-9.12.46-17.374-4.877-20.509-13.046-.653-1.7.576-3.539 2.426-3.632l34.515-1.735c1.85-.093 3.244 1.615 2.754 3.372zm35.376 20.453c-1.558 8.345-8.667 14.983-17.701 16.296-9.035 1.31-17.747-3.03-21.628-10.584-.807-1.571.245-3.458 2.078-3.724l33.377-5.593c1.832-.276 4.199 1.87 3.874 3.605zm23.676-68.218c-22.291 1.068-42.125-11.251-51.679-29.89-8.184.363-14.116.614-17.788.781-6.523.298-11.866.547-16.018.747-5.824 19.422-18.764 33.093-36.236 34.233-20.584 1.344-40.9-22.75-43.01-52.923-1.594-22.78-1.738-34.023.008-46.248 1.874-13.119 6.874-22.53 14.409-29.294.553-11.897 9.852-22.108 14.248-22.21 2.473-.056 2.165.86 1.839 14.188 4.508-17.765 13.75-23.212 17.847-26.26 5.131-3.817 11.169-5.691 11.39 2.533.108 3.913 2.897 46.88 27.675 47.961 2.34.102 3.84.117 6.792-.155 15.392-1.417 44.766-33.66 56.208-46.93 7.118-8.258 11.63-6.662 13.368-4.01 3.953 6.023 5.354 12.317 4.413 18.694l9.563-11.852c1.882-2.32 5.48-2.155 7.117.338 4.259 6.485 5.986 14.137 5.186 21.614 14.723 9.244 24.83 25.299 25.734 43.975l1.303 27.084c1.462 30.364-21.984 56.168-52.369 57.624z"/></g><g style="display:block"><path fill="#F49000" d="M1191.281 566.517c-.51-10.61-9.524-18.795-20.133-18.285-10.012.481-17.974 8.57-18.297 18.59l-.37 26.21c-.385 11.932 9.494 21.656 21.419 21.082 11.28-.542 19.983-10.126 19.44-21.406l-2.059-26.191z"/><path fill="#B16900" d="M1184.452 568.441c.298-8.203-6.484-14.904-14.682-14.51-7.276.35-13.07 6.214-13.335 13.493l-.45 25.093c-.298 8.202 6.484 14.903 14.682 14.509 7.276-.35 13.07-6.214 13.335-13.494l.45-25.091z"/><path fill="#FFB8D1" d="M1184.621 576.582c-.168.005-.337.01-.505.019-12.638.608-22.391 11.346-21.783 23.984.076 1.584.312 3.123.69 4.602a13.93 13.93 0 0 0 7.649 1.839c7.276-.35 13.07-6.214 13.335-13.494l.614-16.95z"/><path fill="#FFC200" d="M1139.852 569.635c-.14.74.29 1.46.996 1.725l10.206.758 41.293-3.554c.925-.148 1.532-1.055 1.256-1.95-3.647-11.807-14.914-20.688-27.826-20.067-13.069.628-23.594 10.773-25.925 23.088z"/><path fill="#FFDE00" d="M1169.474 558.11c2.09.828 4.396-.269 5.178-2.347.781-2.077-.221-4.54-2.347-5.177-4.15-1.243-9.276-1.23-13.392.551-2.038.882-3.025 3.2-2.175 5.252.85 2.05 3.187 2.99 5.251 2.175 1.771-.7 5.396-1.281 7.485-.453z"/></g><g style="display:block"><path fill="#FFF" d="M1269.926 537.91c1.017 21.136-15.293 39.093-36.429 40.11-21.135 1.016-39.093-15.293-40.11-36.428l-1.035-21.527c-1.017-21.136 15.293-39.093 36.429-40.11 21.136-1.016 39.093 15.293 40.11 36.428l1.035 21.527zm-129.573 6.232c1.017 21.135-11.297 38.901-27.505 39.68-16.205.78-30.17-15.721-31.186-36.857l-1.036-21.527c-1.017-21.135 11.3-38.9 27.504-39.68 16.209-.779 30.17 15.722 31.187 36.858l1.036 21.526z"/><path fill="#4B4B4B" d="M1105.697 540.87c.656 9.897 7.524 17.502 15.35 16.986 7.825-.516 13.645-8.95 12.989-18.847l-1.25-19.113c-12.58 6.34-20.22-10.602-11.67-16.782-.658-.276-2.557-.424-3.679-.214-9.657 1.818-13.698 11.39-12.7 23.23.79 9.488.96 14.74.96 14.74zm95.064-4.259c.216 9.913 8.432 17.781 18.355 17.565 9.912-.216 17.77-8.432 17.555-18.354l-.419-19.145c-13.56 5.212-19.018-9.78-14.787-17.291a18.215 18.215 0 0 0-3.557-.274c-1.91.042-3.754.385-5.47.968-9.858 3.977-12.112 14.936-11.997 21.768.116 6.83.32 14.763.32 14.763z"/><path fill="#8EDF00" d="M1108.424 478.411c-25.998 1.635-30.37 15.075-31.473 23.168-2.327 17.052 2.284-.969 2.284-.969 16.994-25.453 48.053-24.08 65.003 12.84 4.442-20.35-.38 1.169-2.463-13.488-2.082-14.656-14.827-22.715-33.35-21.551zm-20.843 107.472c6.07 3.005 8.28 7.276 22.823 10.262 14.543 2.986 10.9 3.006 13.147 3.38-3.73-2.139-29.653-10.385-35.97-13.642zm141.714-110.466c-30.946-.596-41.35 20.094-40.977 37.327.374 17.233.36 1.257.36 1.257 8.151-48.89 60.644-47.892 81.472-16.6-.047-8.048 2.56 21.636 1.098 6.835-1.462-14.8-19.903-28.394-41.953-28.819zm-6.02 115.076c-12.615-1.996-16.608-2.783 7.28 1.923 19.233 3.79 31.867-4.928 41.04-15.992-5.628 6.348-25.968 15.655-48.32 14.07z"/></g></g><g clip-path="url(#bF)" style="display:block" transform="matrix(-1 0 0 1 1976 -43.5)"><path fill="#FFCBA3" d="M222.198-328.213c5.845 0 10.582 4.788 10.582 10.696 0 5.908-4.737 10.697-10.582 10.697-5.844 0-10.582-4.79-10.582-10.697 0-5.908 4.738-10.696 10.582-10.696z" transform="rotate(1.296 -20621.376 44642.766)" style="display:block"/><path fill="#FFB100" d="M234.478-320.203c-6.056-4.642-11.212-2.791-14.133.492-2.92 3.284-4.019 9.626 1.582 14.256 5.6 4.63 17.583 18.256 25.71 28.934 3.118 4.098 10.532 6.159 16.226 1.293 5.694-4.866 3.877-12.443 1.072-16.668-5.673-8.544-24.401-23.664-30.457-28.307z" transform="rotate(1.296 -20621.627 44664.872)" style="display:block"/><path fill="#3D3D3D" d="M173.25-316.537c0 9.562-7.752 17.314-17.314 17.314-9.562 0-17.314-7.752-17.314-17.314 0-9.562 7.752-17.315 17.314-17.315 9.562 0 17.314 7.753 17.314 17.315zm-19.978-8.785c-13.51-11.937-14.787-32.568-2.85-46.079l22.652-26.694c11.937-13.512 32.567-14.788 46.08-2.85 14.325 12.657 14.76 34.86.938 48.067l-.997.596a94.765 94.765 0 0 0-10.584 11.98l-7.422 9.988c-11.403 15.344-33.49 17.65-47.817 4.992z" transform="rotate(1.296 -25476.65 45825.969)" style="display:block"/><path fill="#E89665" d="M170.119-403.653c2.087.944 3.005 3.418 2.051 5.527-.954 2.109-6.986 5.386-6.986 5.386s-1.522-6.695-.568-8.804c.954-2.108 3.417-3.052 5.503-2.109z" transform="rotate(2.132 -15130.515 27766.942)" style="display:block"/><path fill="#FFCBA3" d="M219.585-404.105c-21.544-12.439-49.093-5.057-61.532 16.488-12.439 21.545-5.057 49.093 16.487 61.532l29.192 16.854 45.045-78.02-29.192-16.854z" transform="rotate(1.296 -25455.279 45760.026)" style="display:block"/><g style="display:block"><path fill="#FFB100" d="M1225.777 207.273c-20.757 27.002-22.977 90.74 45.44 115.241l36.497-56.685 34.987-61.15c-52.19-30.261-90.575-31.683-116.924 2.594z"/><path fill="#FFF" d="M1263.376 202.926c2.049 2.115 1.736 5.74-.7 8.1-2.434 2.358-6.067 2.555-8.116.44-2.049-2.115-1.736-5.74.7-8.098 2.434-2.359 6.068-2.557 8.116-.442zm-32.993-8.905c24.959 14.927 48.097-6.872 37.57-12.127-3.968.153-9.581 1.996-14.359 3.46-9.689-1.238-18.088 3.518-23.211 8.667zm-15.878 30.451c19.16 11.277 44.548-19.997 23.618-32.173-5.098 2.949-18.868 14.765-23.618 32.173z"/><path fill="#FF9500" d="M1293.78 257.012c-19.806 32.579-32.279 59.646-22.987 65.294 9.291 5.649 29.43-17.646 49.234-50.224 19.805-32.579 31.777-62.104 22.485-67.753-9.292-5.648-28.928 20.105-48.733 52.683zm-40.135-71.661c16.809 1.281 40.635 10.581 56.675 19.155a7.99 7.99 0 0 0 8.167-.392c2.918-1.92 5.189-5.866 9.652-7.407-30.227-15.167-54.656-19.028-74.494-11.356zm-35.567 35.761c-10.622 26.818-6.813 67.853 32.856 91.868-3.725-14.85 12.772-42.25 18.767-55.926 1.664-3.798.167-8.237-3.468-10.232-9.87-5.415-33.065-19.586-48.155-25.71z"/></g><path fill="#FFCBA3" d="M208.585-408.855c-7.835-3.645-36.835-2.645-50.532 21.238-12.377 21.58-5.057 49.093 16.487 61.532 0 0 2.21 1.585 4.192 2.604C165-376.5 201.25-403.25 213.777-407.001c-1.277-.999-5.192-1.854-5.192-1.854z" transform="rotate(1.296 -25476.398 45803.862)" style="display:block"/><g style="display:block"><path fill="#9F9F9F" d="M1191.323 210.431c-6.274 16.864-2.327 36.83 11.06 49.122 4.414-18.035 3.57-38.847-11.06-49.122z"/><path fill="#B23232" d="m1222.332 200.786 1.048 3.4c.987 3.204-.94 6.506-4.306 7.373-3.365.868-6.895-1.028-7.882-4.232l-1.049-3.4c-.987-3.205.941-6.505 4.307-7.372 3.365-.868 6.894 1.027 7.882 4.231z"/></g><g mask="url(#bG)" style="display:block"><path fill="#F14C4C" d="M1215.868 206.658a6.502 6.502 0 0 1 5.214 4.039 6 6 0 0 1-10.478-1.665l-.174-.51a6.495 6.495 0 0 1 5.438-1.864z"/></g><g mask="url(#bH)" style="display:block"><path fill="#FFF" d="M1198.304 181.734c2.69-4.604 5.945-7.71 7.269-6.937.049.028 1.734 1.04 1.781 1.067 1.263.738-.017 5.203-2.61 9.64-2.59 4.435-5.853 7.744-7.115 7.007l-1.8-1.038c-1.323-.773-.215-5.134 2.475-9.739zm-12.177 20.976c2.69-4.605 5.944-7.711 7.268-6.938l1.782 1.067c1.263.737-.018 5.203-2.61 9.64-2.592 4.435-5.853 7.744-7.115 7.006l-1.8-1.037c-1.323-.773-.216-5.134 2.475-9.738z"/><path fill="#4B4B4B" d="M1187.932 200.733c1.29-2.206 2.848-3.694 3.482-3.323l1.255.656c.605.353-.01 2.493-1.25 4.618-1.242 2.125-2.805 3.71-3.41 3.357-.022-.014-1.239-.629-1.262-.642 2.023-2.41 2.686-4.987 1.185-4.666zm9.5-16.423c1.289-2.206 2.848-3.694 3.482-3.323.023.014 1.232.643 1.255.656.604.354-.01 2.494-1.251 4.618-1.242 2.125-2.804 3.71-3.409 3.358-.023-.014-1.24-.629-1.263-.643 2.023-2.41 2.686-4.986 1.186-4.666z"/><path stroke-linecap="round" stroke-linejoin="round" stroke="#E89665" stroke-width="3" d="m-50.353 5.574 8.892 4.251-8.985 3.287m74.943-6.57L17.39 8.811l8.055 3.69" fill="none" transform="matrix(.43867 -.75081 .21586 .12612 1200.12 183.9)"/></g><path fill="#FFCBA3" d="M191.823-314.003c7.235 0 13.1 5.928 13.1 13.24 0 7.313-5.865 13.24-13.1 13.24-7.235 0-13.098-5.927-13.098-13.24 0-7.312 5.863-13.24 13.098-13.24z" transform="rotate(1.296 -23206.166 42513.172)" style="display:block"/><path fill="#FFB100" d="M204.035-313.043c-9.37-.081-11.166 6.244-11.306 11.637-.139 5.392.975 11.694 9.887 12.098 8.913.404 36.61 3.672 49.42 4.83 5.253.473 12.206-2.71 13.095-10.333.89-7.625-5.755-12.053-10.807-13.274-10.215-2.469-40.92-4.877-50.29-4.958z" transform="rotate(1.296 -23228.774 42557.133)" style="display:block"/><path stroke-linecap="round" stroke-linejoin="round" stroke="#FF9500" stroke-width="12" d="M370.75-299.25s6.293 2.653 12 6.25" fill="none" transform="rotate(10.255 -2213.153 5330.233)" style="display:block"/><path stroke-linecap="round" stroke-linejoin="round" stroke="#FF9500" stroke-width="12" d="M349-258.75s4.673 6.542 8 12.25" fill="none" transform="rotate(-15.726 2787.518 -3479.045)" style="display:block"/><g style="display:block"><path stroke-linecap="round" stroke-linejoin="round" stroke="#00BDFF" stroke-width="7" d="m1168.94 159.368 6.472-3.43m-.371 13.532 5.604-3.264m-6.21 9.883c8.956 5.006 14.083-5.464 20.956-.796" fill="none"/><path fill="#00BDFF" d="M1122.354 190.319c-2.073.537-3.87-1.525-3.055-3.505l2.26-5.495 6.547 7.511-5.752 1.489zm-4.658-8.76c-1.806-1.15-1.524-3.87.48-4.624l5.56-2.094-1.029 9.91-5.01-3.192zm25.077 13.226c-9.702 2.613-19.686-3.134-22.3-12.836-2.613-9.703 3.135-19.686 12.837-22.3 0 0 11.48-3 19.581-7 8.102-3.999 19.828-2.068 24.863 6.627s1.693 19.61-6.628 24.861c-8.32 5.252-28.353 10.648-28.353 10.648z"/><path fill="#FFF" d="M1141.658 186.652a6.173 6.173 0 0 1-7.917-3.68l-2.527-6.917a6.173 6.173 0 0 1 11.595-4.237l2.528 6.917a6.173 6.173 0 0 1-3.679 7.917z"/><path fill="#FFA3A3" d="M1135.93 177.156c.572.245.819.922.54 1.478l-.761 1.524c-.425.85-1.66.78-1.986-.112l-.803-2.197c-.326-.892.573-1.743 1.445-1.367l1.565.674z"/><path fill="#00729A" d="M1131.965 182.668a2.274 2.274 0 1 0-4.48-.785 2.274 2.274 0 0 0 4.48.785zm-1.323-3.75a2.273 2.273 0 1 0-4.479-.784 2.273 2.273 0 1 0 4.48.784z"/></g></g><g clip-path="url(#bK)" style="display:block" transform="matrix(-1 0 0 1 1916 -23.5)"><g style="display:block"><path fill="#4CC5FF" d="M1601.659 785.364c3.818-4.753 10.767-5.51 15.52-1.69l18.01 14.47c4.752 3.82 5.51 10.768 1.69 15.52l-3.683 4.585c-7.642 9.234-14.471 5.334-25.942-1.536-10.738-7.405-17.368-15.913-10.486-25.09l4.89-6.259z"/><path fill="#1CB0F6" d="M1614.356 802.412c-7.976-6.08-9.96-13.192-6.635-17.61 5.203-6.914 18.587-22.326 27.547-29.766 5.967-4.955 26.693-14.665 48.661-20.655 9.706-2.644 19.716 3.076 22.364 12.781 2.646 9.705-3.077 19.717-12.78 22.364-11.92 3.254-31.53 11.83-35.328 13.873-2.887 2.918-15.04 14.702-21.49 23.3-4.16 5.548-15.136 1.203-22.339-4.287z"/><path stroke-linecap="round" stroke="#FF4B4B" stroke-width="12.767" d="M1582.16 819.794c8.711 5.46 20.606 2.863 20.606 2.863" fill="none"/></g><g style="display:block"><path fill="#A46648" d="m1657.413 670.161 26.756 38.889c3.967 5.37 11.537 6.508 16.907 2.542 5.37-3.966 6.51-11.534 2.542-16.906l-30.807-34.961a9.301 9.301 0 1 0-15.398 10.436z"/><path stroke-linecap="round" stroke-linejoin="round" stroke="#A46648" stroke-width="7.796" d="m1647.617 658.328 10.135 4.976m-3.254-17.8.895 11.272m7.134-12.25-1.597 13.119m8.798-7.909-3.557 7.43" fill="none"/></g><g style="display:block"><path fill="#3D3D3D" d="m1722.558 644.917 25.71-18.91c9.39-6.895 22.592-4.874 29.488 4.516l6.689 9.107c6.895 9.39 4.873 22.592-4.517 29.488l-8.144 5.981c-9.39 6.896-22.592 4.874-29.489-4.516l-19.737-25.666zm9.481-5.53-14.578 45.171-27.21-9.412c-9.918-3.696-14.964-14.734-11.268-24.653l3.585-9.62c3.695-9.92 14.732-14.963 24.65-11.268l24.821 9.781zm25.341 20.083c1.178 10.519-50.653 16.32-51.831 5.8l-3.781-33.777c-1.177-10.52 6.395-20.002 16.916-21.18l13.735-1.537c10.52-1.177 20.003 6.395 21.18 16.915l3.781 33.779z"/><path fill="#A46648" d="m1736.064 713.728-37.118-12.4c-8.298-2.772-13.273-11.25-11.646-19.846l4.549-24.034a14.638 14.638 0 0 1 10.661-11.14l27.711-7.153a19.867 19.867 0 0 1 18.378 4.582l11.372 13.402a26.795 26.795 0 0 1 4.917 26.023l-6.685 19.508c-3.059 9.169-12.972 14.12-22.14 11.058z"/><path fill="#FDB02A" d="m1763.69 686.66 1.198-3.498a26.795 26.795 0 0 0-4.917-26.023l-11.372-13.402a19.867 19.867 0 0 0-18.378-4.582l-14.387 3.714c11.434 2.769 33.38 11.539 47.855 43.792zm-47.856-43.79-13.324 3.438a14.638 14.638 0 0 0-10.661 11.14l-1.566 8.274c8.202-11.82 25.55-22.853 25.55-22.853zm.712-1.438c.23.695-.257 1.365-.983 1.454-6.519.798-13.96-2.847-15.475-10.47-.143-.716.252-1.42.982-1.453 9.68-.419 13.748 5.264 15.476 10.47zm-.604 1.381a1.102 1.102 0 0 1-1.452-.983c-.267-4.185.33-12.242 10.469-15.475a1.106 1.106 0 0 1 1.453.982c.476 7.659-3.117 13.03-10.47 15.476z"/><path fill="#A46648" d="M1762.414 676.797a8.151 8.151 0 0 1-10.543 4.666 8.151 8.151 0 0 1-4.666-10.543 8.152 8.152 0 0 1 10.543-4.666 8.152 8.152 0 0 1 4.666 10.543z"/></g><g style="display:block"><path fill="#FFF" d="M1713.78 661.042c.268-3.943 3.75-7.322 7.642-7.414 3.893-.093 6.616 3.14 5.972 7.09l-1.253 7.708c-.568 3.491-3.719 6.3-7.16 6.38-3.438.081-6.426-1.39-6.19-4.872l.99-8.892z"/><path fill="#A46648" d="M1711.875 673.297c1.623-2.626 11.58-6.097 15.757-5.31l-4.046 9.428c-6.205 1.404-11.711-4.118-11.711-4.118z"/><path stroke-linecap="round" stroke="#86401F" stroke-width="4" d="M1697.424 668.031c4.247-3.256 8.594.5 8.594.5" fill="none"/><path fill="#86401F" d="M1710.342 668.973c.1.013 2.018 3.385 1.85 4.714a2.425 2.425 0 0 1-4.811-.605c.167-1.329 2.86-4.121 2.96-4.109zm-.451 7.126-2.096.158a2.497 2.497 0 0 1-.373-4.98l2.096-.157a2.498 2.498 0 0 1 .373 4.98z"/><path fill="#A41414" d="M1725.197 679.289c-1.46 5.96-11.433 10.498-18.715 6.401-2.15-1.21-1.397-4.21.916-5.073 3.168-1.182 5.948-3.067 8.502-5.59 2.554-2.523 5.84-3.256 7.925-.853 1.092 1.258 1.9 2.963 1.372 5.115z"/><path stroke-linecap="round" stroke="#3D3D3D" stroke-width="6.095" d="m1721.77 660.296-.336 4.963" fill="none"/><path fill="#E64340" d="M1714.763 683.735c-1.417-2.324.085-5.826 3.357-7.82 2.145-1.309 4.518-1.644 6.296-1.065.777 1.163 1.217 2.624.831 4.407-.793 3.666-4.337 5.664-5.937 6.392-1.957.146-3.689-.507-4.547-1.914z"/><path fill="#E7E7E7" d="M1720.088 676.706a5.596 5.596 0 0 1-9.252 2.29c1.836-1.054 2.847-1.712 5.114-4 2.267-2.289 5.84-3.256 7.926-.853.288.333.554.697.778 1.09-.336.351-1.486 2.285-4.566 1.473z"/></g><path fill="#FDB02A" d="m749.545 173.4-6.236 3.947c-11.545 7.307-26.828 3.871-34.135-7.675l-3.946-6.236c-7.229-11.421-3.83-26.538 7.59-33.766 14.99-9.487 34.832-5.027 44.319 9.963 7.228 11.421 3.829 26.539-7.592 33.767zm-2.502-9.683-33.434-7.517 4.609-20.499c2.076-9.233 11.242-15.035 20.475-12.959 9.232 2.076 15.034 11.242 12.958 20.475l-4.608 20.5z" transform="rotate(3.758 -7466.791 15340.7)" style="display:block"/><path fill="#1CB0F6" d="M740.472 155.971c10.32 11.635 9.254 29.433-2.381 39.753s-29.433 9.254-39.753-2.381-9.254-29.433 2.381-39.753 29.433-9.254 39.753 2.381z" transform="rotate(3.758 -7474.41 15340.45)" style="display:block"/><g style="display:block"><path stroke-linecap="round" stroke-linejoin="round" stroke="#A46648" stroke-width="13" d="m1760.565 734.078 7.327-24.022m1.968 25.167 14.996-13.316" fill="none"/><path fill="#A46648" d="m1726.169 726.904 13.813 26.49 31.423-22.308s-31.602-14.953-32.908-15.257c-2.928-1.355-6.456-1.838-9.29-.025a8.586 8.586 0 0 0-3.038 11.1zm53.12 18.097-.02-.41c-.267-5.663-2.563-10.746-6.104-14.484-3.924-4.142-9.375-6.632-15.29-6.43-11.252.383-19.592 10.336-19.031 22.215l.019.41c.56 11.878 9.817 21.394 21.07 21.008 11.253-.386 19.918-10.374 19.355-22.309z"/><path stroke-linecap="round" stroke="#86401F" stroke-width="4" d="m1746.585 737.324 13.538-4.194c3.433-1.064 7.207.825 8.43 4.217 0 0 0 0 0 0 1.222 3.392-.57 7.004-4.003 8.067l-13.539 4.194" fill="none"/></g><g style="display:block"><path fill="#1CB0F6" d="M1695.307 769.45c-8.921.694-17.51-4.71-20.48-13.58-1.11-3.314-2.542-7.303-4.386-11.376-6.106 4.8-9.724 10.928-15.053 16.832-7.37 8.164-19.962 8.808-28.126 1.438-8.163-7.37-8.808-19.963-1.439-28.126.314-.347 8.842-8.589 17.391-16.65 16.906-15.942 25.987-22.076 35.83-20.753a20.711 20.711 0 0 1 13.168 7.26c11.068 12.855 17 28.216 20.507 38.684 3.505 10.462-2.137 21.787-12.6 25.292-1.594.533-3.21.855-4.812.98z"/><path stroke-linecap="round" stroke-linejoin="round" stroke="#0395DB" stroke-width="4" d="m1656.404 757.79 13.468-14.947s6.076 21.72 13.9 23.995" fill="none"/><path fill="#5EC6FF" d="M1645.43 774.723c-3.219 3.544-13.044-.138-21.947-8.224-8.903-8.086-13.51-17.513-10.292-21.057.83-.914 10.578-11.464 12.614-13.602 3.276-3.443 13.108.521 21.658 8.116s13.43 17.149 10.253 21.042c-3.177 3.893-11.853 13.25-12.286 13.725z"/><path stroke-linecap="round" stroke="#33B4F7" stroke-width="4.078" d="M1618.54 746.819c4.25.87 9.766 3.946 14.897 8.638 5.132 4.691 8.687 9.912 9.934 14.067" fill="none"/><path stroke-linecap="round" stroke="#FF4B4B" stroke-width="13.049" d="M1606.34 751.84c5.462 8.468 14.91 15.288 14.91 15.288" fill="none"/></g></g><g clip-path="url(#bO)" style="display:block" transform="matrix(-1 0 0 1 1916 -23.5)"><path fill="#FFB7E3" d="M467.017-248.933s-21.285-1.263-52.276-3.165c-15.682-.962-21.741 12.598-21.142 21.885.599 9.287 9.345 23.196 24.422 18.787 30.521-8.926 62.293-17.748 62.293-17.748l-13.297-19.759z" transform="rotate(14.489 -1280.836 3878.651)" style="display:block"/><g style="display:block"><path fill="#FFB7E3" d="M1394.334 303.524c-29.56-9.548-52.253-15.265-62.552-18.308-10.298-3.043-22.28 12.369-24.22 27.614-1.953 15.354 6.263 27.76 17.317 28.586 11.223.84 30.737 3.225 62.455 2.307 15.631-.452 20.317-9.023 21.984-16.341 1.667-7.318.009-19.016-14.984-23.858z"/><path fill="#FF9BDE" d="M1338.371 319.66c-4.436 11.842-13.97 18.61-21.293 15.113-7.323-3.496-9.664-15.93-5.227-27.773 4.436-11.843 13.97-18.61 21.293-15.114 7.323 3.495 9.663 15.93 5.227 27.773z"/></g><path stroke-linecap="round" stroke-linejoin="round" stroke="#FF7AD5" stroke-width="25.023" d="M331.982-229.743c4-8.5 8.026-18.76 12.788-28.31" fill="none" transform="rotate(-13.478 3082.77 -4094.787)" style="display:block"/><path stroke-linecap="round" stroke-linejoin="round" stroke="#FF86D0" stroke-width="15" d="M502.881-191.052c.376-4.651-.544-10.655-2.324-15.564" fill="none" transform="rotate(-25.282 2277.14 -2084.099)" style="display:block"/><path fill="#FFB7E3" d="M477.637-216.167c-7.613 5.833-.003.004-.006.006 0 0-18.631 14.661-50.031 23.985-8.308 2.467-15.805 6.766-15.948 15.431-.142 8.665 6.764 15.82 15.43 15.948 28.668.422 61.793-23.578 70.09-30.808 7.129-6.212 7.901-15.269 2.504-22.049-5.394-6.777-14.426-8.346-22.039-2.513z" transform="rotate(12.703 -1614.836 4448.942)" style="display:block"/><path fill="#FFB7E3" d="M457.463-227.353c-11.621 5.879-32.272 15.702-43.279 41.145-11.007 25.443 20.779 26.539 27.111 14.999 7.705-14.041 24.272-24.118 27.134-26.05 17.148-11.237 6.297-41.165-10.961-30.097" transform="rotate(8.764 -2757.255 6415.415)" style="display:block"/><path fill="#FFB3E6" d="M528.609-252.517c-1.324-2.088 4.65-9.711 4.65-9.711l14.956 10.268a12.758 12.758 0 0 0 7.223 2.241l22.195.002c4.776 0 7.827 5.094 5.572 9.305l-2.776 5.185a32.342 32.342 0 0 0-3.439 10.258c-.964 6.153-7.198 9.99-13.126 8.079l-5.291-1.706a42.078 42.078 0 0 1-26.151-24.402l-3.813-9.519z" transform="rotate(-4.268 8722.313 -13072.422)" style="display:block"/><g style="display:block"><path fill="#FFB7E3" d="M1471.07 303.596c16.79 15.18 18.095 41.096 2.915 57.887-7.351 8.132-20.732 13.92-33.593 10.088-13.781-4.107-22.052-16.964-27.401-27.34-3.194-6.193-5.234-11.638-6.025-18.422-.792-6.784 1.346-14.246 6.217-19.297 15.715-16.292 41.097-18.096 57.887-2.916z"/><path fill="#FF86D0" d="M1483.787 341.969c.367-1.86.6-3.74.707-5.624l-5.827-16.074-17.416-23.256a40.495 40.495 0 0 0-3.738-1.564l-5.882-1.64-.067-.014c-8.613 6.825-10.974 20.398-4.539 31.324 7.572 12.856 20.447 20.537 36.762 16.848z"/><path fill="#FFB3E6" d="M1459.665 331.82a.666.666 0 0 1 .978.043l2.537 2.99a.666.666 0 0 1-.04.906l-4.711 4.643a.666.666 0 0 1-.943-.008l-2.727-2.77a.667.667 0 0 1 .006-.941l4.9-4.862zm-11.324-23.735a.666.666 0 0 1 .865.46l1.004 3.79a.666.666 0 0 1-.426.8l-6.248 2.166a.666.666 0 0 1-.848-.412l-1.272-3.674a.667.667 0 0 1 .41-.847l6.515-2.283z"/><path fill="#1CB0F6" d="M1460.329 289.174c27.489-.207 38.705 23.7 30.285 42.635l-1.077 2.422c-3.746 8.422-23.688 10.582-35.206-8.187-13.584-20.122-4.365-36.358 5.998-36.87z"/></g><path stroke-linecap="round" stroke-linejoin="round" stroke="#1CB0F6" stroke-width="21" d="M504.489-354.816s-6.256 26.023-8.388 38.325c-2.161 12.475-4.493 36.008-4.493 36.008" fill="none" transform="rotate(4.92 -5662.303 11389.159)" style="display:block"/><path stroke-linecap="round" stroke="#1CB0F6" stroke-width="21" d="M510.4-244.433s24.771 4.411 37.155 7.155c14.807 3.282 44.368 10.91 44.368 10.91" fill="none" transform="rotate(4.92 -5662.303 11389.159)" style="display:block"/><path fill="#E18E70" d="M495.071-354.738c-6.063 6.951-16.614 7.671-23.566 1.608-6.952-6.064-7.672-16.615-1.609-23.566 6.064-6.952 16.615-7.673 23.567-1.609 6.952 6.064 7.671 16.615 1.608 23.567z" transform="rotate(4.92 -5665.752 11687.384)" style="display:block"/><path fill="#E18E70" d="M592.492-232.902c-7.193-7.197-7.191-18.862.006-26.057 7.198-7.194 18.865-7.191 26.058.006 7.194 7.198 7.191 18.864-.007 26.058-7.198 7.194-18.862 7.19-26.057-.007z" transform="rotate(4.92 -5897.143 11219.067)" style="display:block"/><path fill="#FFB3E6" d="M606.933-297.91c-9.289 35.122-45.292 56.063-80.414 46.774-35.122-9.29-56.063-45.292-46.774-80.414 9.289-35.122 45.292-56.063 80.414-46.774 35.122 9.289 56.063 45.292 46.774 80.414z" transform="rotate(12.27 -1655.149 4529.168)" style="display:block"/><g style="display:block"><path fill="#E18E70" d="M1530.496 239.291c14.848 17.025 13.059 43.036-3.997 58.1-17.056 15.063-39.524 14.767-54.373-2.257-14.848-17.025-16.454-44.33.602-59.394 17.056-15.063 42.92-13.473 57.768 3.551z"/><path fill="#A70000" d="M1473.926 290.113c-1.728 3.343.309 10.788 13.481 15.807 13.173 5.019 17.725-3.584 18.733-5.533 1.008-1.95 4.09-10.557-2.407-13.033-5.093-1.94-12.898 1.976-19.221-.433-6.324-2.409-8.858-.15-10.586 3.192z"/><path fill="#FFF" d="M1503.734 287.355c-2.409-.918-5.425-.525-8.604-.11-3.542.46-7.287.947-10.619-.322-2.929-1.116-5.044-1.23-6.644-.7 1.287 2.142 4.106 4.602 8.472 6.634 7.892 3.613 15.818 2.795 20.723.341.653-2.931-1.302-5.071-3.328-5.843z"/><path fill="#9E4D31" d="M1485.757 271.535c.082.142-1.614 5.745-3.322 7.475-1.68 1.705-5.294.447-6.367-1.425-1.073-1.873-.209-3.235 1.77-4.198 1.55-1.095 7.838-1.994 7.92-1.852zm-9.907-19.01c-.725-.165-1.038-.922-.698-1.689.34-.767 1.205-1.256 1.93-1.091 5.196 1.183 7.645 4.483 8.543 8.105.884 3.562.275 7.422-.565 9.93-.261.78-1.088 1.346-1.846 1.263-.757-.082-1.158-.783-.896-1.564.7-2.092 1.219-5.402.476-8.397-.729-2.937-2.663-5.583-6.944-6.557zm33.686 29.93c.378.706 1.302.996 2.064.648.761-.348 1.074-1.201.696-1.907-2.874-5.364-7.367-7.908-11.803-8.856-4.367-.933-8.647-.317-11.303.55-.802.261-1.22 1.075-.936 1.816.284.741 1.164 1.13 1.966.869 2.208-.72 5.886-1.251 9.585-.461 3.63.775 7.309 2.82 9.731 7.342z"/><path fill="#3B3B3B" d="M1551.61 270.298c.304-2.286-1.668-4.378-3.656-4.623-1.553.09-3.384-.61-5.482-2.123-3.464-2.364-3.265-26.276-27.521-37.218-9.188-4.592-24.62-4.788-27.609 1.472-6.12 12.884-2.91 36.883 24.625 48.902 25.663 11.593 36.43 1.01 39.642-6.41z"/></g></g><g clip-path="url(#cg)" style="display:block" transform="matrix(-1 0 0 1 1916 -23.5)"><g mask="url(#ch)" style="display:block"><g clip-path="url(#ci)"><path stroke-linecap="round" stroke-linejoin="round" stroke="#3D3D3D" stroke-width="24" d="M541.75 368c5.75 8.75 18.25 20.25 18.25 20.25s13-6 19.75-15" fill="none" transform="matrix(1 0 0 1 975 551.5)" style="display:block"/><path fill="#3D3D3D" d="M522.75 276.25c17.811 0 32.25 14.439 32.25 32.25s-14.439 32.25-32.25 32.25-32.25-14.439-32.25-32.25 14.439-32.25 32.25-32.25zM558.125 293c26.762-1.298 48.625 11.136 48.625 34.125s-23.464 30.261-46.375 28.375c-51.625-4.25-64.125-59.5-2.25-62.5z" transform="translate(971.5 545)" style="display:block"/><path fill="#DB8D74" d="M521.5 303c-16.5 11-42 12.5-66 13.5s-53.834 22.53-51 52c2.5 26 27.5 43 54.5 43.5 30.012.556 61-2.5 100.5-24s36.5-55.5 23.5-77-45-19-61.5-8z" transform="translate(975 551.5)" style="display:block"/><g mask="url(#cj)" style="display:block"><path fill="#FFAADE" d="M1492.5 854.5c13.323-2.391-152.067-42.155-142.5 67 11 125.5 215.436 30.845 181 38-18.75 3.896-37.5 2.218-51.976-5.091a52.71 52.71 0 0 1-8.246-5.143 46.815 46.815 0 0 1-6.736-6.261c-6.815-7.734-11.063-17.897-11.542-30.505-.979-25.793 20.5-54.5 40-58zm-31.923 3.641S1345 834 1349.5 920s139.447 52.785 139.447 52.785-71.447-13.785-71.29-57.179c.154-42.619 42.92-57.465 42.92-57.465zm-38.427 17.952-4.673 5.153 11.079 1.186 4.352-5.389-10.758-.95zm22.447-17.85S1344.5 853.5 1352.5 920.5s114.903 53.404 114.903 53.404-57.433-15.551-58.349-59.054c-.794-37.714 35.543-56.607 35.543-56.607zm-26.926 54.604-10.783.684.706 8.846 10.509-1.462-.432-8.068z"/><path fill="#A56641" d="M1460.577 858.141S1345 834 1349.5 920s139.447 52.785 139.447 52.785-71.447-13.785-71.29-57.179c.154-42.619 42.92-57.465 42.92-57.465z"/><path fill="#2CE69B" d="m1422.15 876.093-4.673 5.153 11.079 1.186 4.352-5.389-10.758-.95zm22.447-17.85S1344.5 853.5 1352.5 920.5s114.903 53.404 114.903 53.404-57.433-15.551-58.349-59.054c-.794-37.714 35.543-56.607 35.543-56.607zm-26.926 54.604-10.783.684.706 8.846 10.509-1.462-.432-8.068z"/></g><g mask="url(#ck)" style="display:block"><path fill="#3D3D3D" d="M1495 807c-23.5 1.25-32.501 22.011-33.25 36.25-.75 14.25 1.25 30 20 39 19.679 9.446 45-1 49.5-31 3.247-21.647-12.75-45.5-36.25-44.25z"/></g><path fill="#3D3D3D" d="M557.75 265.5c16.983 0 30.75 13.711 30.75 30.625s-13.767 30.625-30.75 30.625S527 313.039 527 296.125s13.767-30.625 30.75-30.625z" transform="translate(971.5 545)" style="display:block"/><path fill="#DB8D74" d="M512.021 320.5c6.639 0 12.02 5.382 12.02 12.021 0 6.639-5.381 12.02-12.02 12.02-6.639 0-12.021-5.381-12.021-12.02 0-6.639 5.382-12.021 12.021-12.021z" transform="matrix(.75 0 0 .75 1099.505 627.38)" style="display:block"/><g style="display:block"><path fill="#B82C2C" d="M1511.918 910.555a2.511 2.511 0 0 1 3.028 1.857l7.114 29.674a2.511 2.511 0 0 1-1.857 3.028l-.286.07c-9.544 2.287-19.134-3.596-21.422-13.138-2.288-9.544 3.594-19.135 13.137-21.423l.286-.068z"/><path fill="#FD5050" d="M1504.398 941.553a17.69 17.69 0 0 1-5.903-9.508 17.713 17.713 0 0 1 2.01-13.231 17.65 17.65 0 0 1 5.917 9.509 17.668 17.668 0 0 1-2.024 13.23z" opacity=".8"/></g><path stroke-linecap="round" stroke-linejoin="round" stroke="#3D3D3D" stroke-width="24" d="M541.75 368c5.75 8.75 18.25 20.25 18.25 20.25l-2.476-2.349" fill="none" transform="matrix(1 0 0 1 975 551.5)" style="display:block"/><g style="display:block"><path fill="#FFF" d="M1545.742 926.94s5.177-3.323 9.955-6.653c4.305-6.786 7.651-13.952 9.63-21.225-2.636 1.314-7.74 7.558-9.714 10.946l-9.871 16.931zm4.916-28.499c-3.941-3.606-10.353-2.975-13.536 1.757l-7.855 11.602c9.41 5.403 12.276 13.168 12.276 13.168l8.99-14.086c2.188-3.253 3.244-9.737.125-12.44z"/><path fill="#3D3D3D" d="M1555.35 911.972c1.492-2.383 3.53-3.796 4.553-3.155 1.022.64.64 3.091-.853 5.474l-.94 1.5c-1.493 2.383-3.533 3.796-4.555 3.156-1.022-.641-.639-3.092.854-5.475l.94-1.5zm-14.2-.854c1.492-2.383 4.016-3.493 5.637-2.477 1.62 1.015 1.722 3.77.23 6.153l-.94 1.501c-1.493 2.383-4.017 3.491-5.638 2.476-1.62-1.015-1.723-3.77-.23-6.152l.94-1.501z"/></g><path stroke-linecap="round" stroke-linejoin="round" stroke="#3D3D3D" stroke-width="12" d="M568.75 333.5s7.5-2 11.5 1m17.608 3.473s7.344 2.513 8.997 7.232" fill="none" transform="translate(971.5 546.5)" style="display:block"/><path fill="#DB8D74" d="M571.295 372.25c4.029 0 7.295 3.217 7.295 7.186s-3.266 7.186-7.295 7.186-7.295-3.217-7.295-7.186 3.266-7.186 7.295-7.186z" transform="matrix(1.1 0 0 1.1 917.87 513.056)" style="display:block"/></g></g><g style="display:block"><path fill="#DB8D74" d="M1426.5 951.25c-8.006.66-18.703 6.314-15.75 16.75 2.65 9.367 13.049 8.113 20.828 5.096 3.672 4.904 9.672 1.654 7.672-3.346-3.348-8.37-5.691-19.083-12.75-18.5z"/><path stroke-linecap="round" stroke-linejoin="round" stroke="#FFAADE" stroke-width="25" d="m1440.25 930.75-6.5 27" fill="none"/></g></g></g></svg>